<svg width="64" height="32" viewBox="0 0 64 32" fill="none" xmlns="http://www.w3.org/2000/svg">
<path d="M2.56668 28.666C3.21327 28.666 3.63286 28.7008 3.82644 28.7684C4.00529 28.8254 4.16111 28.9394 4.2706 29.0935C4.37279 29.2426 4.42389 29.4235 4.42389 29.6372C4.42389 29.8897 4.35805 30.0915 4.2254 30.2416C4.09073 30.3933 3.9086 30.4937 3.7095 30.5259C3.57193 30.5547 3.24766 30.5696 2.7357 30.5696H1.41993V28.666H2.56668ZM2.23651 25.836C2.90471 25.836 3.30957 25.8449 3.45008 25.8608C3.68592 25.8907 3.86575 25.9732 3.98563 26.1104C4.10987 26.2602 4.17404 26.4517 4.16545 26.6471C4.16545 26.8768 4.09569 27.0616 3.95615 27.2038C3.8176 27.343 3.62598 27.4284 3.38326 27.4583C3.24864 27.4742 2.90471 27.4821 2.35148 27.4821H1.41993V25.836H2.23651ZM0 31.7684H2.39472C3.29974 31.7614 3.87066 31.7455 4.10748 31.7197C4.48482 31.6779 4.80221 31.5656 5.06065 31.3817C5.31712 31.1998 5.52053 30.9543 5.66989 30.6491C5.81827 30.344 5.89295 30.0288 5.89295 29.7048C5.89295 29.2943 5.777 28.9364 5.54706 28.6322C5.31712 28.328 4.98695 28.1133 4.55851 27.9861C4.86314 27.8469 5.1029 27.6382 5.28076 27.3599C5.45764 27.0815 5.54706 26.7764 5.54706 26.4434C5.54706 26.1352 5.47533 25.8579 5.33088 25.6104C5.19715 25.374 5.01282 25.1709 4.7914 25.0159C4.57075 24.8653 4.32023 24.7652 4.05736 24.7227C3.7832 24.676 3.36852 24.6521 2.81234 24.6521H0V31.7684Z" fill="#F0CC7F"/>
<path d="M9.38797 28.666C10.0346 28.666 10.4541 28.7008 10.6477 28.7684C10.8266 28.8254 10.9824 28.9394 11.0919 29.0935C11.1941 29.2426 11.2452 29.4235 11.2452 29.6372C11.2452 29.8897 11.1793 30.0915 11.0467 30.2416C10.9121 30.3934 10.7299 30.4938 10.5308 30.5259C10.3932 30.5547 10.0689 30.5696 9.556 30.5696H8.24122V28.666H9.38797ZM9.0578 25.836C9.726 25.836 10.1309 25.8449 10.2714 25.8608C10.5072 25.8907 10.6861 25.9732 10.8069 26.1104C10.9312 26.2602 10.9953 26.4517 10.9867 26.6471C10.9867 26.8768 10.917 27.0616 10.7774 27.2038C10.6389 27.343 10.4473 27.4284 10.2046 27.4583C10.0699 27.4742 9.726 27.4821 9.17277 27.4821H8.24122V25.836H9.0578ZM6.82129 31.7684H9.21601C10.12 31.7614 10.6919 31.7455 10.9288 31.7197C11.3061 31.6779 11.6235 31.5656 11.8819 31.3817C12.1384 31.1998 12.3418 30.9543 12.4912 30.6491C12.6368 30.3561 12.7132 30.0328 12.7142 29.7048C12.7142 29.2943 12.5983 28.9364 12.3683 28.6322C12.1384 28.328 11.8082 28.1133 11.3798 27.9861C11.6844 27.8469 11.9242 27.6382 12.1021 27.3599C12.2789 27.0815 12.3683 26.7764 12.3683 26.4434C12.3683 26.1352 12.2966 25.8579 12.1522 25.6104C12.0182 25.3738 11.8335 25.1707 11.6117 25.0159C11.3914 24.8654 11.1412 24.7653 10.8787 24.7227C10.6045 24.676 10.1898 24.6521 9.63265 24.6521H6.82129V31.7684Z" fill="#F0CC7F"/>
<path d="M16.0808 28.666C16.7264 28.666 17.147 28.7008 17.3406 28.7684C17.5195 28.8254 17.6753 28.9394 17.7848 29.0935C17.887 29.2426 17.9381 29.4235 17.9381 29.6372C17.9381 29.8897 17.8712 30.0915 17.7386 30.2416C17.604 30.3934 17.4218 30.4938 17.2227 30.5259C17.0851 30.5547 16.7608 30.5696 16.2489 30.5696H14.9341V28.666H16.0808ZM15.7497 25.836C16.4179 25.836 16.8227 25.8449 16.9642 25.8608C17.2001 25.8907 17.3789 25.9732 17.4988 26.1104C17.6231 26.2602 17.6872 26.4517 17.6786 26.6471C17.6786 26.8768 17.6098 27.0616 17.4703 27.2038C17.3308 27.343 17.1401 27.4284 16.8964 27.4583C16.7628 27.4742 16.4179 27.4821 15.8647 27.4821H14.9341V25.836H15.7497ZM13.5142 31.7684H15.9079C16.8129 31.7614 17.3848 31.7455 17.6216 31.7197C17.999 31.6779 18.3164 31.5656 18.5748 31.3817C18.8313 31.1998 19.0347 30.9543 19.1841 30.6491C19.3294 30.356 19.4054 30.0327 19.4061 29.7048C19.4061 29.2943 19.2912 28.9364 19.0612 28.6322C18.8303 28.328 18.5011 28.1133 18.0727 27.9861C18.3763 27.8469 18.6171 27.6382 18.7949 27.3599C18.9718 27.0815 19.0602 26.7764 19.0602 26.4434C19.0602 26.1352 18.9885 25.8579 18.8441 25.6104C18.7104 25.3739 18.526 25.1708 18.3046 25.0159C18.0839 24.8652 17.8334 24.7651 17.5705 24.7227C17.2974 24.676 16.8827 24.6521 16.3255 24.6521H13.5142V31.7684Z" fill="#F0CC7F"/>
<path d="M15.6418 19.9245H3.68298L3.23096 21.2963H6.41671L7.07508 23.3132H12.2527L12.911 21.2973H16.0948L15.6418 19.9245Z" fill="#F0CC7F"/>
<path d="M9.77664 0C9.71277 0.4334 9.60468 1.56064 10.5903 2.25348C11.4697 2.87277 13.1992 4.10835 15.1537 5.61332C17.2467 7.22366 16.2572 10.0855 15.475 11.0736C15.2077 11.4115 12.647 14.8887 12.647 14.8887C12.647 14.8887 13.3682 12.9294 12.2853 12.0447L7.63544 8.43042C6.45626 7.47615 6.13592 5.02784 7.24926 3.33698C8.07371 2.08449 9.77762 0 9.77762 0H9.77664Z" fill="#F0CC7F"/>
<path d="M7.30087 9.60541C7.30087 9.60541 7.03752 10.5229 7.91405 11.1144L11.2452 13.7605C11.879 14.3191 12.0579 15.7645 11.4732 16.6342C10.9897 17.3539 9.59045 19.1472 9.59045 19.1472C9.59045 19.1472 9.81744 18.2277 9.00577 17.6859L5.77482 15.1402C5.1587 14.5816 4.60645 13.5299 5.49968 12.0199C5.97823 11.2098 7.30087 9.60541 7.30087 9.60541Z" fill="#F0CC7F"/>
<path d="M41.7952 18.2127L44.3059 11.2346L46.8677 18.2127H41.7952ZM46.3351 6.8479H42.3652L35.125 25.6531H39.1067L40.6416 21.3817H48.0724L49.6957 25.6531H53.7786L46.3351 6.8479Z" fill="#F0CC7F"/>
<path d="M54.9214 17.0199V15.168H64.0001V17.0209L54.9214 17.0199Z" fill="#F0CC7F"/>
<path d="M58.5454 11.4484H60.3761V20.6313H58.5464L58.5454 11.4484Z" fill="#F0CC7F"/>
<path d="M27.8877 32.0003V0.0479736H28.6414V32.0003H27.8877Z" fill="#F0CC7F"/>
</svg>
