<svg width="32" height="32" viewBox="0 0 32 32" fill="none" xmlns="http://www.w3.org/2000/svg">
<path d="M27.7266 15.6582L27.3078 15.4634C26.2153 14.9553 25.0049 14.7059 23.7839 14.7375L21.0755 14.8498L14.8459 6.21511C14.7958 6.14556 14.7261 6.09007 14.6445 6.05463L13.4189 5.52222C13.2247 5.43786 13.0149 5.60757 13.0778 5.79817L15.9337 14.4515C16.0291 14.7404 15.8042 15.0349 15.4795 15.0462L8.61149 15.2866C8.20841 15.3012 7.82302 15.132 7.57894 14.8333L5.92142 12.8046C5.72742 12.5671 5.44186 12.409 5.12497 12.3637L4.20428 12.2319C4.11465 12.2191 4.04116 12.2974 4.06692 12.3783L4.99054 15.2779C4.9973 15.2991 5.00073 15.3212 5.00073 15.3433L5.00073 15.5904C5.00073 15.6959 4.9235 15.788 4.8134 15.8136L4.09367 15.9809C3.96357 16.0112 3.97105 16.1855 4.10333 16.206L4.79408 16.3131C4.91333 16.3316 5.00073 16.4275 5.00073 16.54L5.00073 16.7718C5.00073 16.794 4.9973 16.816 4.99054 16.8372L4.06692 19.7368C4.04116 19.8177 4.11465 19.896 4.20428 19.8832L5.12497 19.7514C5.44186 19.7061 5.72742 19.548 5.92142 19.3105L7.57816 17.2828C7.82267 16.9835 8.20897 16.8143 8.61274 16.8295L15.4421 17.0786C15.7665 17.0905 15.9909 17.3849 15.8955 17.6735L13.0781 26.2018C13.0151 26.3924 13.2249 26.5622 13.4191 26.4778L14.6475 25.9442C14.7272 25.9095 14.7956 25.8558 14.8455 25.7884L21.0755 17.3803L23.7839 17.4019C25.0049 17.4334 26.2153 17.1841 27.3078 16.6759L27.7266 16.4812C28.0911 16.3116 28.0911 15.8277 27.7266 15.6582Z" fill="#FF5F5F"/>
</svg>
