<svg width="134" height="36" viewBox="0 0 134 36" fill="none" xmlns="http://www.w3.org/2000/svg">
<path fill-rule="evenodd" clip-rule="evenodd" d="M13.3436 9.11401C19.6526 9.15506 24.7451 14.2708 24.7451 20.5672C24.7454 20.9723 24.7228 21.3771 24.6774 21.7797L24.6751 21.8754C24.6251 22.8894 23.7855 23.6963 22.757 23.6963C22.6573 23.6963 22.5593 23.6887 22.4637 23.6741C22.4128 23.6782 22.3611 23.6803 22.3088 23.6803C21.2472 23.6803 20.3866 22.8214 20.3866 21.7619C20.3861 21.5977 20.4065 21.434 20.4472 21.2748C20.4686 21.0366 20.4828 20.7912 20.4828 20.5636C20.568 17.7768 19.1268 15.1644 16.7217 13.7459C15.586 13.0761 14.3204 12.7225 13.0475 12.6852C11.7747 12.7224 10.5089 13.076 9.37311 13.7459C6.96793 15.1644 5.52679 17.7768 5.61197 20.5636C5.61197 20.7912 5.62622 21.0366 5.6476 21.2748C5.68832 21.434 5.70868 21.5977 5.70817 21.7619C5.70817 22.8214 4.84756 23.6803 3.78595 23.6803C3.73371 23.6803 3.68196 23.6782 3.63078 23.6741C3.53544 23.6887 3.43751 23.6963 3.33781 23.6963C2.30932 23.6963 1.46966 22.8894 1.41972 21.8754L1.41737 21.7797C1.37203 21.3771 1.34942 20.9723 1.34967 20.5672C1.34967 14.2708 6.44221 9.15506 12.7512 9.11401H13.3436Z" fill="#FF5F5F"/>
<path fill-rule="evenodd" clip-rule="evenodd" d="M13.0475 0C14.6868 0 16.1644 1.00118 16.79 2.53589C17.4157 4.0706 17.0661 5.83599 15.9043 7.00751C14.7426 8.17903 12.9981 8.5255 11.4857 7.88508C9.97318 7.24467 8.99117 5.74375 8.99827 4.08336C9.00801 1.8253 10.818 0 13.0475 0Z" fill="#FF5F5F"/>
<path fill-rule="evenodd" clip-rule="evenodd" d="M8.55915 21.8832V22.9816L12.5574 21.6562L12.7447 23.8237C12.4518 24.1231 12.1309 24.3929 11.7866 24.6292V25.519C12.1468 25.4677 13.0149 25.0723 13.2778 25.0723C13.5408 25.0723 14.4089 25.4677 14.7691 25.519V24.6292C14.425 24.3926 14.1042 24.1228 13.8109 23.8237L13.973 21.6269L17.9965 22.9633V21.8649C17.7276 21.6696 17.4474 21.4911 17.1572 21.3303C16.8727 21.1582 16.5989 20.9898 16.3215 20.8104L14.7547 19.8254C14.4989 19.6717 14.2071 19.5069 14.1927 19.3494C14.1675 19.0346 14.272 17.2405 14.2756 16.7571C14.2756 15.9992 13.7317 15.4793 13.2706 15.494C12.8096 15.5086 12.2584 15.9956 12.2584 16.7498C12.2584 17.2331 12.3737 19.0346 12.3521 19.3494C12.3521 19.5069 12.0459 19.668 11.7902 19.8254L10.2269 20.8104C9.94233 20.9898 9.67218 21.1765 9.38762 21.3303C9.09742 21.491 8.81714 21.6695 8.54834 21.8649" fill="#18262F"/>
<path fill-rule="evenodd" clip-rule="evenodd" d="M21.2724 29.0554C21.0821 29.0561 20.8932 29.0886 20.7137 29.1516L20.6171 29.1979C20.5558 29.2229 20.496 29.2515 20.438 29.2834L17.2366 30.8183L20.4165 32.2428C20.5096 32.2966 20.608 32.3407 20.7102 32.3746C20.8901 32.4355 21.0788 32.4667 21.2688 32.4672C22.2191 32.4672 22.9894 31.7011 22.9894 30.756C22.9894 29.8109 22.2191 29.0448 21.2688 29.0448L21.2724 29.0554ZM5.25481 29.0448C5.44629 29.0454 5.63632 29.0779 5.81702 29.1409L5.9137 29.1872C5.97458 29.2121 6.03187 29.2406 6.08917 29.2727L9.29053 30.8076L6.11065 32.2321C6.01734 32.2855 5.91899 32.3296 5.81702 32.3639C5.63579 32.4244 5.44598 32.4557 5.25481 32.4565C4.30452 32.4565 3.53416 31.6904 3.53416 30.7453C3.53416 29.8002 4.30452 29.0341 5.25481 29.0341V29.0448ZM5.25481 25.519C5.97954 25.519 6.69643 25.6682 7.3604 25.9571C7.48285 26.0061 7.60241 26.062 7.7185 26.1245L13.269 28.7919L18.8194 26.1245C18.9355 26.062 19.0551 26.0062 19.1775 25.9571C21.4476 24.9731 24.1004 25.6956 25.5494 27.6927C26.9985 29.6898 26.852 32.4213 25.1976 34.2538C23.5431 36.0863 20.8281 36.5241 18.6762 35.3056L13.2654 32.72L7.86532 35.3163C5.94655 36.4008 3.55121 36.1799 1.86577 34.7628C0.180331 33.3457 -0.437297 31.0335 0.318812 28.9713C1.07492 26.9092 3.0442 25.5352 5.25123 25.5297L5.25481 25.519Z" fill="#FF5F5F"/>
<path d="M44.71 31C42.7395 31 40.9115 30.6905 39.226 30.0714C37.5642 29.4286 36.116 28.5238 34.8815 27.3571C33.6708 26.1905 32.7212 24.8214 32.0327 23.25C31.3442 21.6548 31 19.9048 31 18C31 16.0952 31.3442 14.3571 32.0327 12.7857C32.7212 11.1905 33.6708 9.80952 34.8815 8.64286C36.116 7.47619 37.5642 6.58333 39.226 5.96429C40.9115 5.32143 42.7395 5 44.71 5C47.0128 5 49.0663 5.40476 50.8705 6.21429C52.6985 7.02381 54.2179 8.19048 55.4287 9.71429L50.9418 13.7857C50.1346 12.8333 49.2443 12.1071 48.271 11.6071C47.3214 11.1071 46.2531 10.8571 45.0661 10.8571C44.0452 10.8571 43.1075 11.0238 42.2529 11.3571C41.3982 11.6905 40.6623 12.1786 40.045 12.8214C39.4515 13.4405 38.9767 14.1905 38.6206 15.0714C38.2882 15.9524 38.1221 16.9286 38.1221 18C38.1221 19.0714 38.2882 20.0476 38.6206 20.9286C38.9767 21.8095 39.4515 22.5714 40.045 23.2143C40.6623 23.8333 41.3982 24.3095 42.2529 24.6429C43.1075 24.9762 44.0452 25.1429 45.0661 25.1429C46.2531 25.1429 47.3214 24.8929 48.271 24.3929C49.2443 23.8929 50.1346 23.1667 50.9418 22.2143L55.4287 26.2857C54.2179 27.7857 52.6985 28.9524 50.8705 29.7857C49.0663 30.5952 47.0128 31 44.71 31Z" fill="#18262F"/>
<path d="M58.5724 30.5V5.5H71.3209C74.597 5.5 77.0423 6.10714 78.6566 7.32143C80.2709 8.5119 81.0781 10.0833 81.0781 12.0357C81.0781 13.3214 80.7339 14.4524 80.0454 15.4286C79.3807 16.381 78.4311 17.1429 77.1966 17.7143C75.9858 18.2619 74.5377 18.5357 72.8521 18.5357L73.5643 16.8214C75.3211 16.8214 76.8523 17.0952 78.1581 17.6429C79.4638 18.1667 80.4727 18.9405 81.1849 19.9643C81.9209 20.9643 82.2889 22.1905 82.2889 23.6429C82.2889 25.8095 81.4105 27.5 79.6537 28.7143C77.9207 29.9048 75.3805 30.5 72.0331 30.5H58.5724ZM65.552 25.3929H71.4633C72.6741 25.3929 73.5881 25.1905 74.2053 24.7857C74.8463 24.3571 75.1668 23.7143 75.1668 22.8571C75.1668 22 74.8463 21.369 74.2053 20.9643C73.5881 20.5357 72.6741 20.3214 71.4633 20.3214H65.0535V15.4286H70.395C71.582 15.4286 72.4723 15.2262 73.0658 14.8214C73.6593 14.4167 73.956 13.8095 73.956 13C73.956 12.1905 73.6593 11.5952 73.0658 11.2143C72.4723 10.8095 71.582 10.6071 70.395 10.6071H65.552V25.3929Z" fill="#18262F"/>
<path d="M98.3688 31C96.3984 31 94.5704 30.6905 92.8849 30.0714C91.2231 29.4286 89.7749 28.5238 88.5404 27.3571C87.3297 26.1905 86.3801 24.8214 85.6916 23.25C85.0031 21.6548 84.6589 19.9048 84.6589 18C84.6589 16.0952 85.0031 14.3571 85.6916 12.7857C86.3801 11.1905 87.3297 9.80952 88.5404 8.64286C89.7749 7.47619 91.2231 6.58333 92.8849 5.96429C94.5704 5.32143 96.3984 5 98.3688 5C100.672 5 102.725 5.40476 104.529 6.21429C106.357 7.02381 107.877 8.19048 109.088 9.71429L104.601 13.7857C103.793 12.8333 102.903 12.1071 101.93 11.6071C100.98 11.1071 99.912 10.8571 98.725 10.8571C97.7041 10.8571 96.7664 11.0238 95.9117 11.3571C95.0571 11.6905 94.3211 12.1786 93.7039 12.8214C93.1104 13.4405 92.6356 14.1905 92.2795 15.0714C91.9471 15.9524 91.7809 16.9286 91.7809 18C91.7809 19.0714 91.9471 20.0476 92.2795 20.9286C92.6356 21.8095 93.1104 22.5714 93.7039 23.2143C94.3211 23.8333 95.0571 24.3095 95.9117 24.6429C96.7664 24.9762 97.7041 25.1429 98.725 25.1429C99.912 25.1429 100.98 24.8929 101.93 24.3929C102.903 23.8929 103.793 23.1667 104.601 22.2143L109.088 26.2857C107.877 27.7857 106.357 28.9524 104.529 29.7857C102.725 30.5952 100.672 31 98.3688 31Z" fill="#18262F"/>
<path d="M117.329 30.5V11.1071H109.672V5.5H132V11.1071H124.379V30.5H117.329Z" fill="#18262F"/>
</svg>
