<svg width="115" height="36" viewBox="0 0 115 36" fill="none" xmlns="http://www.w3.org/2000/svg">
<path fill-rule="evenodd" clip-rule="evenodd" d="M13.3435 9.11395C19.6525 9.155 24.745 14.2708 24.745 20.5671C24.7453 20.9723 24.7227 21.3771 24.6773 21.7797L24.675 21.8753C24.6251 22.8894 23.7854 23.6962 22.7569 23.6962C22.6572 23.6962 22.5593 23.6886 22.4637 23.674C22.4128 23.6781 22.361 23.6802 22.3088 23.6802C21.2472 23.6802 20.3865 22.8214 20.3865 21.7619C20.386 21.5976 20.4064 21.4339 20.4471 21.2747C20.4685 21.0365 20.4827 20.7912 20.4827 20.5636C20.5679 17.7767 19.1268 15.1644 16.7216 13.7458C15.5859 13.076 14.3203 12.7225 13.0475 12.6852C11.7747 12.7224 10.5089 13.0759 9.37305 13.7458C6.96787 15.1644 5.52673 17.7767 5.61191 20.5636C5.61191 20.7912 5.62616 21.0365 5.64754 21.2747C5.68826 21.4339 5.70862 21.5976 5.70811 21.7619C5.70811 22.8214 4.8475 23.6802 3.78589 23.6802C3.73365 23.6802 3.6819 23.6781 3.63072 23.6741C3.53538 23.6886 3.43745 23.6962 3.33775 23.6962C2.30926 23.6962 1.4696 22.8894 1.41966 21.8753L1.41731 21.7797C1.37196 21.3771 1.34936 20.9723 1.34961 20.5671C1.34961 14.2708 6.44215 9.155 12.7511 9.11395H13.3435Z" fill="#FF5F5F"/>
<path fill-rule="evenodd" clip-rule="evenodd" d="M13.0473 0C14.6866 0 16.1642 1.00118 16.7899 2.53589C17.4155 4.0706 17.0659 5.83599 15.9042 7.00751C14.7425 8.17903 12.998 8.5255 11.4855 7.88508C9.973 7.24467 8.99099 5.74375 8.99809 4.08336C9.00783 1.8253 10.8179 0 13.0473 0Z" fill="#FF5F5F"/>
<path fill-rule="evenodd" clip-rule="evenodd" d="M8.55915 21.8831V22.9815L12.5574 21.6561L12.7447 23.8237C12.4518 24.1231 12.1309 24.3929 11.7866 24.6292V25.5189C12.1468 25.4676 13.0149 25.0722 13.2778 25.0722C13.5408 25.0722 14.4089 25.4676 14.7691 25.5189V24.6292C14.425 24.3925 14.1042 24.1227 13.8109 23.8237L13.973 21.6268L17.9965 22.9632V21.8648C17.7276 21.6695 17.4474 21.491 17.1572 21.3302C16.8727 21.1581 16.5989 20.9897 16.3215 20.8103L14.7547 19.8254C14.4989 19.6716 14.2071 19.5068 14.1927 19.3494C14.1675 19.0345 14.272 17.2404 14.2756 16.7571C14.2756 15.9992 13.7317 15.4792 13.2706 15.4939C12.8096 15.5085 12.2584 15.9955 12.2584 16.7498C12.2584 17.2331 12.3737 19.0345 12.3521 19.3494C12.3521 19.5068 12.0459 19.6679 11.7902 19.8254L10.2269 20.8103C9.94233 20.9897 9.67218 21.1764 9.38762 21.3302C9.09742 21.4909 8.81714 21.6694 8.54834 21.8648" fill="#FF5F5F"/>
<path fill-rule="evenodd" clip-rule="evenodd" d="M21.2724 29.0553C21.0821 29.0559 20.8932 29.0884 20.7137 29.1515L20.6171 29.1978C20.5558 29.2228 20.496 29.2514 20.438 29.2832L17.2366 30.8182L20.4165 32.2427C20.5096 32.2964 20.608 32.3406 20.7102 32.3745C20.8901 32.4353 21.0788 32.4666 21.2688 32.4671C22.2191 32.4671 22.9894 31.7009 22.9894 30.7559C22.9894 29.8108 22.2191 29.0446 21.2688 29.0446L21.2724 29.0553ZM5.25481 29.0446C5.44629 29.0453 5.63632 29.0778 5.81702 29.1408L5.9137 29.1871C5.97458 29.212 6.03187 29.2405 6.08917 29.2726L9.29053 30.8075L6.11065 32.232C6.01734 32.2854 5.91899 32.3295 5.81702 32.3638C5.63579 32.4243 5.44598 32.4556 5.25481 32.4564C4.30452 32.4564 3.53416 31.6902 3.53416 30.7452C3.53416 29.8001 4.30452 29.034 5.25481 29.034V29.0446ZM5.25481 25.5189C5.97954 25.5189 6.69643 25.6681 7.3604 25.957C7.48285 26.006 7.60241 26.0619 7.7185 26.1243L13.269 28.7918L18.8194 26.1243C18.9355 26.0619 19.0551 26.006 19.1775 25.957C21.4476 24.9729 24.1004 25.6955 25.5494 27.6926C26.9985 29.6897 26.852 32.4212 25.1976 34.2537C23.5431 36.0862 20.8281 36.524 18.6762 35.3055L13.2654 32.7199L7.86532 35.3161C5.94655 36.4007 3.55121 36.1797 1.86577 34.7627C0.180331 33.3456 -0.437297 31.0333 0.318812 28.9712C1.07492 26.9091 3.0442 25.535 5.25123 25.5296L5.25481 25.5189Z" fill="#FF5F5F"/>
<path d="M41.8616 10.195C43.4196 10.195 44.7726 10.3589 45.9206 10.6869C47.0959 11.0149 47.9979 11.4796 48.6266 12.081C49.2826 12.655 49.6106 13.352 49.6106 14.172C49.6106 14.7186 49.4466 15.2379 49.1186 15.7299C48.7906 16.1946 48.3123 16.427 47.6836 16.427C47.2463 16.427 46.8773 16.3723 46.5766 16.263C46.3033 16.1263 46.0573 15.9623 45.8386 15.771C45.6199 15.5796 45.3603 15.402 45.0596 15.238C44.7863 15.074 44.3626 14.9509 43.7886 14.8689C43.2419 14.7596 42.8319 14.705 42.5586 14.705C41.1646 14.705 39.9756 15.0056 38.9916 15.607C38.0349 16.2083 37.2969 17.0283 36.7776 18.0669C36.2583 19.0783 35.9986 20.2536 35.9986 21.593C35.9986 22.905 36.2583 24.0803 36.7776 25.1189C37.3243 26.1303 38.0623 26.9366 38.9916 27.538C39.9483 28.1393 41.0416 28.44 42.2716 28.44C42.9549 28.44 43.5426 28.399 44.0346 28.317C44.5266 28.235 44.9366 28.112 45.2646 27.948C45.6473 27.7293 45.9889 27.4969 46.2896 27.2509C46.5903 27.0049 47.0413 26.882 47.6426 26.882C48.3533 26.882 48.8999 27.1143 49.2826 27.579C49.6653 28.0163 49.8566 28.563 49.8566 29.219C49.8566 29.9023 49.4739 30.5309 48.7086 31.1049C47.9433 31.6516 46.9319 32.1026 45.6746 32.458C44.4446 32.786 43.1053 32.95 41.6566 32.95C39.4973 32.95 37.6249 32.4579 36.0396 31.4739C34.4543 30.4626 33.2243 29.096 32.3496 27.374C31.5023 25.652 31.0786 23.725 31.0786 21.593C31.0786 19.3516 31.5296 17.3836 32.4316 15.689C33.3609 13.967 34.6319 12.6276 36.2446 11.671C37.8846 10.687 39.7569 10.195 41.8616 10.195Z" fill="#FF5F5F"/>
<path d="M64.7614 10.195C66.6747 10.195 68.3831 10.687 69.8864 11.671C71.4171 12.6276 72.6197 13.9533 73.4944 15.6479C74.3964 17.3426 74.8474 19.3106 74.8474 21.552C74.8474 23.7933 74.3964 25.775 73.4944 27.497C72.6197 29.1916 71.4307 30.5309 69.9274 31.5149C68.4514 32.4716 66.7841 32.95 64.9254 32.95C63.8321 32.95 62.8071 32.7723 61.8504 32.417C60.8937 32.0616 60.0464 31.6106 59.3084 31.0639C58.5977 30.5173 58.0374 29.9706 57.6274 29.424C57.2447 28.85 57.0534 28.3716 57.0534 27.989L58.3244 27.456V30.449C58.3244 31.1596 58.0921 31.761 57.6274 32.253C57.1627 32.7176 56.5751 32.95 55.8644 32.95C55.1537 32.95 54.5661 32.7176 54.1014 32.253C53.6367 31.7883 53.4044 31.187 53.4044 30.449V4.70095C53.4044 3.99028 53.6367 3.40262 54.1014 2.93795C54.5661 2.44595 55.1537 2.19995 55.8644 2.19995C56.5751 2.19995 57.1627 2.44595 57.6274 2.93795C58.0921 3.40262 58.3244 3.99028 58.3244 4.70095V15.115L57.6274 14.746C57.6274 14.3906 57.8187 13.967 58.2014 13.475C58.5841 12.9556 59.1034 12.45 59.7594 11.958C60.4154 11.4386 61.1671 11.0149 62.0144 10.6869C62.8891 10.3589 63.8047 10.195 64.7614 10.195ZM64.1464 14.705C62.9437 14.705 61.8914 15.0056 60.9894 15.607C60.0874 16.2083 59.3767 17.0283 58.8574 18.0669C58.3654 19.0783 58.1194 20.24 58.1194 21.552C58.1194 22.8366 58.3654 24.0119 58.8574 25.0779C59.3767 26.1166 60.0874 26.9366 60.9894 27.538C61.8914 28.1393 62.9437 28.44 64.1464 28.44C65.3491 28.44 66.3877 28.1393 67.2624 27.538C68.1644 26.9366 68.8614 26.1166 69.3534 25.0779C69.8727 24.0119 70.1324 22.8366 70.1324 21.552C70.1324 20.24 69.8727 19.0783 69.3534 18.0669C68.8614 17.0283 68.1644 16.2083 67.2624 15.607C66.3877 15.0056 65.3491 14.705 64.1464 14.705Z" fill="#FF5F5F"/>
<path d="M88.9075 10.195C90.4655 10.195 91.8185 10.3589 92.9665 10.6869C94.1418 11.0149 95.0438 11.4796 95.6725 12.081C96.3285 12.655 96.6565 13.352 96.6565 14.172C96.6565 14.7186 96.4925 15.2379 96.1645 15.7299C95.8365 16.1946 95.3582 16.427 94.7295 16.427C94.2922 16.427 93.9232 16.3723 93.6225 16.263C93.3492 16.1263 93.1032 15.9623 92.8845 15.771C92.6658 15.5796 92.4062 15.402 92.1055 15.238C91.8322 15.074 91.4085 14.9509 90.8345 14.8689C90.2878 14.7596 89.8778 14.705 89.6045 14.705C88.2105 14.705 87.0215 15.0056 86.0375 15.607C85.0808 16.2083 84.3428 17.0283 83.8235 18.0669C83.3042 19.0783 83.0445 20.2536 83.0445 21.593C83.0445 22.905 83.3042 24.0803 83.8235 25.1189C84.3702 26.1303 85.1082 26.9366 86.0375 27.538C86.9942 28.1393 88.0875 28.44 89.3175 28.44C90.0008 28.44 90.5885 28.399 91.0805 28.317C91.5725 28.235 91.9825 28.112 92.3105 27.948C92.6932 27.7293 93.0348 27.4969 93.3355 27.2509C93.6362 27.0049 94.0872 26.882 94.6885 26.882C95.3992 26.882 95.9458 27.1143 96.3285 27.579C96.7112 28.0163 96.9025 28.563 96.9025 29.219C96.9025 29.9023 96.5198 30.5309 95.7545 31.1049C94.9892 31.6516 93.9778 32.1026 92.7205 32.458C91.4905 32.786 90.1512 32.95 88.7025 32.95C86.5432 32.95 84.6708 32.4579 83.0855 31.4739C81.5002 30.4626 80.2702 29.096 79.3955 27.374C78.5482 25.652 78.1245 23.725 78.1245 21.593C78.1245 19.3516 78.5755 17.3836 79.4775 15.689C80.4068 13.967 81.6778 12.6276 83.2905 11.671C84.9305 10.687 86.8028 10.195 88.9075 10.195Z" fill="#FF5F5F"/>
<path d="M100.696 11.0149H110.413C111.069 11.0149 111.616 11.2336 112.053 11.671C112.491 12.1083 112.709 12.655 112.709 13.311C112.709 13.9396 112.491 14.4726 112.053 14.91C111.616 15.3199 111.069 15.525 110.413 15.525H100.696C100.04 15.525 99.4936 15.3063 99.0563 14.8689C98.619 14.4316 98.4003 13.885 98.4003 13.229C98.4003 12.6003 98.619 12.081 99.0563 11.671C99.4936 11.2336 100.04 11.0149 100.696 11.0149ZM105.083 5.88995C105.794 5.88995 106.368 6.13595 106.805 6.62795C107.27 7.09262 107.502 7.68028 107.502 8.39095V26.636C107.502 27.0186 107.571 27.333 107.707 27.579C107.871 27.825 108.076 28.0026 108.322 28.1119C108.596 28.2213 108.883 28.276 109.183 28.276C109.511 28.276 109.812 28.2213 110.085 28.1119C110.359 27.9753 110.673 27.907 111.028 27.907C111.411 27.907 111.753 28.0846 112.053 28.44C112.381 28.7953 112.545 29.2873 112.545 29.916C112.545 30.6813 112.122 31.31 111.274 31.802C110.454 32.294 109.566 32.54 108.609 32.54C108.035 32.54 107.393 32.499 106.682 32.417C105.999 32.3076 105.343 32.0753 104.714 31.72C104.113 31.3373 103.607 30.7633 103.197 29.998C102.787 29.2326 102.582 28.1803 102.582 26.841V8.39095C102.582 7.68028 102.815 7.09262 103.279 6.62795C103.771 6.13595 104.373 5.88995 105.083 5.88995Z" fill="#FF5F5F"/>
<path fill-rule="evenodd" clip-rule="evenodd" d="M49.2818 15.8453C48.912 16.3693 48.3691 16.627 47.6834 16.627C47.2307 16.627 46.8371 16.5706 46.5081 16.451L46.4973 16.447L46.487 16.4419C46.1992 16.298 45.9389 16.1246 45.7067 15.9215C45.5008 15.7414 45.2537 15.5718 44.9636 15.4136L44.9564 15.4096C44.7176 15.2664 44.3258 15.1478 43.7601 15.067L43.7491 15.0654C43.205 14.9566 42.8111 14.905 42.5584 14.905C41.194 14.905 40.0432 15.199 39.0967 15.777C38.1725 16.3582 37.4595 17.15 36.9563 18.1564L36.9553 18.1584C36.4529 19.1368 36.1984 20.2798 36.1984 21.593C36.1984 22.8768 36.4521 24.0199 36.9549 25.0267C37.4858 26.0079 38.2003 26.7876 39.0989 27.3693C40.0206 27.9484 41.0761 28.24 42.2714 28.24C42.9475 28.24 43.5235 28.1994 44.0015 28.1197C44.4779 28.0403 44.8658 27.9229 45.1701 27.7716C45.5424 27.5585 45.873 27.3333 46.1628 27.0962C46.5141 26.8087 47.0189 26.682 47.6424 26.682C48.3997 26.682 49.0073 26.9318 49.4349 27.4495C49.8523 27.9277 50.0564 28.5223 50.0564 29.219C50.0564 29.988 49.6227 30.6693 48.8284 31.265L48.8247 31.2678C48.0349 31.832 47.0003 32.2911 45.7288 32.6505L45.726 32.6513C44.477 32.9843 43.1201 33.15 41.6564 33.15C39.4658 33.15 37.5557 32.6505 35.9339 31.6439L35.9318 31.6426C34.3155 30.6115 33.0615 29.2175 32.1711 27.4646L32.17 27.4623C31.3077 25.7099 30.8784 23.7522 30.8784 21.593C30.8784 19.3244 31.3351 17.3231 32.2549 15.595L32.2554 15.594C33.2011 13.8417 34.4969 12.4752 36.1419 11.4992C37.816 10.4949 39.7244 9.995 41.8614 9.995C43.4325 9.995 44.8046 10.1603 45.9749 10.4946C47.1676 10.8275 48.1017 11.3037 48.7615 11.9334C49.4556 12.5422 49.8104 13.2917 49.8104 14.172C49.8104 14.7614 49.6329 15.3189 49.2848 15.8409L49.2818 15.8453ZM48.6264 12.081C47.9978 11.4797 47.0958 11.015 45.9204 10.687C44.7724 10.359 43.4194 10.195 41.8614 10.195C39.7568 10.195 37.8844 10.687 36.2444 11.671C34.6318 12.6277 33.3608 13.967 32.4314 15.689C31.5294 17.3837 31.0784 19.3517 31.0784 21.593C31.0784 23.725 31.5021 25.652 32.3494 27.374C33.2241 29.096 34.4541 30.4627 36.0394 31.474C37.6248 32.458 39.4971 32.95 41.6564 32.95C43.1051 32.95 44.4444 32.786 45.6744 32.458C46.9318 32.1027 47.9431 31.6517 48.7084 31.105C49.4738 30.531 49.8564 29.9023 49.8564 29.219C49.8564 28.563 49.6651 28.0163 49.2824 27.579C48.8998 27.1143 48.3531 26.882 47.6424 26.882C47.0411 26.882 46.5901 27.005 46.2894 27.251C45.9888 27.497 45.6471 27.7293 45.2644 27.948C44.9364 28.112 44.5264 28.235 44.0344 28.317C43.5424 28.399 42.9548 28.44 42.2714 28.44C41.0414 28.44 39.9481 28.1393 38.9914 27.538C38.0621 26.9367 37.3241 26.1303 36.7774 25.119C36.2581 24.0803 35.9984 22.905 35.9984 21.593C35.9984 20.2537 36.2581 19.0783 36.7774 18.067C37.2968 17.0283 38.0348 16.2083 38.9914 15.607C39.9754 15.0057 41.1644 14.705 42.5584 14.705C42.8318 14.705 43.2418 14.7597 43.7884 14.869C44.3624 14.951 44.7861 15.074 45.0594 15.238C45.3601 15.402 45.6198 15.5797 45.8384 15.771C46.0571 15.9623 46.3031 16.1263 46.5764 16.263C46.8771 16.3723 47.2461 16.427 47.6834 16.427C48.3121 16.427 48.7904 16.1947 49.1184 15.73C49.4464 15.238 49.6104 14.7187 49.6104 14.172C49.6104 13.352 49.2824 12.655 48.6264 12.081ZM58.5242 13.0763C58.8605 12.696 59.2722 12.3232 59.7592 11.958C60.4152 11.4387 61.1669 11.015 62.0142 10.687C62.8889 10.359 63.8045 10.195 64.7612 10.195C66.6745 10.195 68.3829 10.687 69.8862 11.671C71.4169 12.6277 72.6195 13.9533 73.4942 15.648C74.3962 17.3427 74.8472 19.3107 74.8472 21.552C74.8472 23.7933 74.3962 25.775 73.4942 27.497C72.6195 29.1917 71.4305 30.531 69.9272 31.515C68.4512 32.4717 66.7839 32.95 64.9252 32.95C63.8319 32.95 62.8069 32.7723 61.8502 32.417C60.8935 32.0617 60.0462 31.6107 59.3082 31.064C59.0226 30.8443 58.7612 30.6246 58.5242 30.4049C58.4555 30.3412 58.3888 30.2775 58.3242 30.2139V30.449C58.3242 30.4632 58.3241 30.4773 58.3239 30.4914C58.3148 31.1836 58.0826 31.7708 57.6272 32.253C57.1625 32.7177 56.5749 32.95 55.8642 32.95C55.1535 32.95 54.5659 32.7177 54.1012 32.253C53.6365 31.7883 53.4042 31.187 53.4042 30.449V4.701C53.4042 3.99033 53.6365 3.40266 54.1012 2.938C54.5659 2.446 55.1535 2.2 55.8642 2.2C56.5749 2.2 57.1625 2.446 57.6272 2.938C58.0919 3.40266 58.3242 3.99033 58.3242 4.701V13.3144C58.3876 13.2347 58.4543 13.1554 58.5242 13.0763ZM58.5242 12.78C58.8403 12.4455 59.2116 12.1188 59.6371 11.7996C60.3096 11.2675 61.0784 10.8348 61.942 10.5005L61.944 10.4997C62.8416 10.1631 63.7811 9.995 64.7612 9.995C66.7101 9.995 68.4564 10.4966 69.994 11.5025C71.5557 12.479 72.7816 13.8316 73.6714 15.5552C74.5907 17.283 75.0472 19.2839 75.0472 21.552C75.0472 23.8205 74.5906 25.8347 73.6716 27.5893C72.7822 29.3124 71.5705 30.6784 70.0367 31.6823C68.5265 32.6612 66.8202 33.15 64.9252 33.15C63.8098 33.15 62.7611 32.9687 61.7806 32.6045C60.8082 32.2433 59.9439 31.7838 59.1892 31.2247L59.1862 31.2226C58.947 31.0385 58.7239 30.8539 58.517 30.6688C58.4728 31.3343 58.2251 31.9112 57.7726 32.3903L57.7687 32.3945C57.2633 32.8999 56.6231 33.15 55.8642 33.15C55.1053 33.15 54.4652 32.8998 53.9598 32.3944C53.4528 31.8875 53.2042 31.2329 53.2042 30.449V4.701C53.2042 3.94307 53.4537 3.3037 53.9578 2.7986C54.462 2.26578 55.1026 2 55.8642 2C56.6258 2 57.2664 2.26578 57.7706 2.7986C58.2747 3.3037 58.5242 3.94307 58.5242 4.701V12.78ZM67.1489 27.3732L67.1512 27.3716C68.0213 26.7916 68.695 26.0003 69.1725 24.9924L69.1734 24.9904C69.6784 23.9539 69.9322 22.8089 69.9322 21.552C69.9322 20.2669 69.678 19.1374 69.1753 18.1584L69.1724 18.1527C68.6949 17.1447 68.0213 16.3534 67.1513 15.7734L67.1489 15.7718C66.3119 15.1964 65.314 14.905 64.1462 14.905C62.9785 14.905 61.9657 15.1963 61.1001 15.7734C60.2294 16.3539 59.5414 17.1461 59.0366 18.1555C58.5602 19.1351 58.3192 20.2657 58.3192 21.552C58.3192 22.8093 58.5596 23.9547 59.0375 24.9913C59.5423 25.9998 60.23 26.7915 61.1001 27.3716C61.9657 27.9487 62.9785 28.24 64.1462 28.24C65.314 28.24 66.3119 27.9486 67.1489 27.3732ZM58.8572 25.078C58.3652 24.012 58.1192 22.8367 58.1192 21.552C58.1192 20.24 58.3652 19.0783 58.8572 18.067C59.3765 17.0283 60.0872 16.2083 60.9892 15.607C61.8912 15.0057 62.9435 14.705 64.1462 14.705C65.3489 14.705 66.3875 15.0057 67.2622 15.607C68.1642 16.2083 68.8612 17.0283 69.3532 18.067C69.8725 19.0783 70.1322 20.24 70.1322 21.552C70.1322 22.8367 69.8725 24.012 69.3532 25.078C68.8612 26.1167 68.1642 26.9367 67.2622 27.538C66.3875 28.1393 65.3489 28.44 64.1462 28.44C62.9435 28.44 61.8912 28.1393 60.9892 27.538C60.0872 26.9367 59.3765 26.1167 58.8572 25.078ZM96.3277 15.8453C95.9579 16.3693 95.415 16.627 94.7293 16.627C94.2766 16.627 93.883 16.5706 93.554 16.451L93.5432 16.447L93.5329 16.4419C93.2451 16.298 92.9848 16.1246 92.7526 15.9215C92.5467 15.7414 92.2996 15.5718 92.0095 15.4136L92.0023 15.4096C91.7635 15.2664 91.3717 15.1478 90.806 15.067L90.795 15.0654C90.2509 14.9566 89.857 14.905 89.6043 14.905C88.2399 14.905 87.0891 15.199 86.1426 15.777C85.2184 16.3582 84.5054 17.15 84.0022 18.1564L84.0012 18.1584C83.4988 19.1368 83.2443 20.2798 83.2443 21.593C83.2443 22.8768 83.498 24.0199 84.0008 25.0267C84.5317 26.0079 85.2462 26.7876 86.1448 27.3693C87.0665 27.9484 88.122 28.24 89.3173 28.24C89.9934 28.24 90.5695 28.1994 91.0474 28.1197C91.5238 28.0403 91.9117 27.9229 92.216 27.7716C92.5883 27.5585 92.9189 27.3333 93.2087 27.0962C93.56 26.8087 94.0648 26.682 94.6883 26.682C95.4457 26.682 96.0533 26.9318 96.4809 27.4497C96.8982 27.9278 97.1023 28.5224 97.1023 29.219C97.1023 29.988 96.6686 30.6693 95.8743 31.265L95.8706 31.2678C95.0808 31.832 94.0462 32.2911 92.7747 32.6505L92.7719 32.6513C91.5229 32.9843 90.166 33.15 88.7023 33.15C86.5117 33.15 84.6016 32.6505 82.9798 31.6439L82.9777 31.6426C81.3614 30.6115 80.1074 29.2175 79.217 27.4646L79.2159 27.4623C78.3536 25.7099 77.9243 23.7522 77.9243 21.593C77.9243 19.3244 78.381 17.3231 79.3008 15.595L79.3013 15.594C80.247 13.8417 81.5428 12.4752 83.1878 11.4992C84.8619 10.4949 86.7703 9.995 88.9073 9.995C90.4783 9.995 91.8505 10.1603 93.0207 10.4945C94.2135 10.8275 95.1476 11.3037 95.8074 11.9334C96.5015 12.5422 96.8563 13.2918 96.8563 14.172C96.8563 14.7614 96.6788 15.3189 96.3307 15.8409L96.3277 15.8453ZM95.6723 12.081C95.0436 11.4797 94.1417 11.015 92.9663 10.687C91.8183 10.359 90.4653 10.195 88.9073 10.195C86.8027 10.195 84.9303 10.687 83.2903 11.671C81.6777 12.6277 80.4067 13.967 79.4773 15.689C78.5753 17.3837 78.1243 19.3517 78.1243 21.593C78.1243 23.725 78.548 25.652 79.3953 27.374C80.27 29.096 81.5 30.4627 83.0853 31.474C84.6707 32.458 86.543 32.95 88.7023 32.95C90.151 32.95 91.4903 32.786 92.7203 32.458C93.9776 32.1027 94.989 31.6517 95.7543 31.105C96.5196 30.531 96.9023 29.9023 96.9023 29.219C96.9023 28.563 96.711 28.0163 96.3283 27.579C95.9456 27.1143 95.399 26.882 94.6883 26.882C94.087 26.882 93.636 27.005 93.3353 27.251C93.0346 27.497 92.693 27.7293 92.3103 27.948C91.9823 28.112 91.5723 28.235 91.0803 28.317C90.5883 28.399 90.0007 28.44 89.3173 28.44C88.0873 28.44 86.994 28.1393 86.0373 27.538C85.108 26.9367 84.37 26.1303 83.8233 25.119C83.304 24.0803 83.0443 22.905 83.0443 21.593C83.0443 20.2537 83.304 19.0783 83.8233 18.067C84.3427 17.0283 85.0807 16.2083 86.0373 15.607C87.0213 15.0057 88.2103 14.705 89.6043 14.705C89.8777 14.705 90.2877 14.7597 90.8343 14.869C91.4083 14.951 91.832 15.074 92.1053 15.238C92.406 15.402 92.6657 15.5797 92.8843 15.771C93.103 15.9623 93.349 16.1263 93.6223 16.263C93.923 16.3723 94.292 16.427 94.7293 16.427C95.358 16.427 95.8363 16.1947 96.1643 15.73C96.4923 15.238 96.6563 14.7187 96.6563 14.172C96.6563 13.352 96.3283 12.655 95.6723 12.081ZM112.19 15.0559C111.712 15.5041 111.115 15.725 110.413 15.725H107.702V26.636C107.702 26.9924 107.765 27.2681 107.878 27.4749C108.022 27.6877 108.196 27.8361 108.4 27.9277C108.648 28.0265 108.909 28.076 109.183 28.076C109.486 28.076 109.758 28.0262 110.004 27.9292C110.307 27.7792 110.65 27.707 111.028 27.707C111.481 27.707 111.874 27.92 112.203 28.3075C112.572 28.7095 112.745 29.2543 112.745 29.916C112.745 30.7726 112.264 31.4582 111.376 31.9743C110.525 32.4844 109.601 32.74 108.609 32.74C108.026 32.74 107.376 32.6984 106.659 32.6157L106.65 32.6147C105.943 32.5014 105.264 32.2606 104.616 31.8941L104.607 31.889C103.971 31.4842 103.443 30.8815 103.021 30.0924C102.589 29.2865 102.382 28.197 102.382 26.841V15.725H100.696C99.9906 15.725 99.392 15.4877 98.9147 15.0104C98.4374 14.5331 98.2001 13.9345 98.2001 13.229C98.2001 12.5492 98.4387 11.9768 98.917 11.5273C99.3939 11.0515 99.9918 10.815 100.696 10.815H102.382V8.391C102.382 7.63206 102.632 6.99199 103.138 6.48658C103.668 5.95618 104.321 5.69 105.083 5.69C105.844 5.69 106.473 5.95528 106.951 6.49069C107.453 6.99547 107.702 7.63412 107.702 8.391V10.815H110.413C111.119 10.815 111.717 11.0523 112.195 11.5296C112.672 12.0069 112.909 12.6055 112.909 13.311C112.909 13.9917 112.67 14.5759 112.195 15.0514L112.19 15.0559ZM110.413 11.015C111.069 11.015 111.616 11.2337 112.053 11.671C112.49 12.1083 112.709 12.655 112.709 13.311C112.709 13.9397 112.49 14.4727 112.053 14.91C111.616 15.32 111.069 15.525 110.413 15.525H107.502V26.636C107.502 27.0187 107.57 27.333 107.707 27.579C107.871 27.825 108.076 28.0027 108.322 28.112C108.595 28.2213 108.882 28.276 109.183 28.276C109.511 28.276 109.812 28.2213 110.085 28.112C110.358 27.9753 110.673 27.907 111.028 27.907C111.411 27.907 111.752 28.0847 112.053 28.44C112.381 28.7953 112.545 29.2873 112.545 29.916C112.545 30.6813 112.121 31.31 111.274 31.802C110.454 32.294 109.566 32.54 108.609 32.54C108.035 32.54 107.393 32.499 106.682 32.417C105.999 32.3077 105.343 32.0753 104.714 31.72C104.113 31.3373 103.607 30.7633 103.197 29.998C102.787 29.2327 102.582 28.1803 102.582 26.841V15.525H100.696C100.04 15.525 99.4934 15.3063 99.0561 14.869C98.6188 14.4317 98.4001 13.885 98.4001 13.229C98.4001 12.6003 98.6188 12.081 99.0561 11.671C99.4934 11.2337 100.04 11.015 100.696 11.015H102.582V8.391C102.582 7.68033 102.814 7.09267 103.279 6.628C103.771 6.136 104.372 5.89 105.083 5.89C105.794 5.89 106.368 6.136 106.805 6.628C107.27 7.09267 107.502 7.68033 107.502 8.391V11.015H110.413Z" fill="#FF5F5F"/>
</svg>
