<svg width="115" height="36" viewBox="0 0 115 36" fill="none" xmlns="http://www.w3.org/2000/svg">
<path fill-rule="evenodd" clip-rule="evenodd" d="M13.3436 9.11401C19.6526 9.15506 24.7451 14.2708 24.7451 20.5672C24.7454 20.9723 24.7228 21.3771 24.6774 21.7797L24.6751 21.8754C24.6251 22.8894 23.7855 23.6963 22.757 23.6963C22.6573 23.6963 22.5593 23.6887 22.4637 23.6741C22.4128 23.6782 22.3611 23.6803 22.3088 23.6803C21.2472 23.6803 20.3866 22.8214 20.3866 21.7619C20.3861 21.5977 20.4065 21.434 20.4472 21.2748C20.4686 21.0366 20.4828 20.7912 20.4828 20.5636C20.568 17.7768 19.1268 15.1644 16.7217 13.7459C15.586 13.0761 14.3204 12.7225 13.0475 12.6852C11.7747 12.7224 10.5089 13.076 9.37311 13.7459C6.96793 15.1644 5.52679 17.7768 5.61197 20.5636C5.61197 20.7912 5.62622 21.0366 5.6476 21.2748C5.68832 21.434 5.70868 21.5977 5.70817 21.7619C5.70817 22.8214 4.84756 23.6803 3.78595 23.6803C3.73371 23.6803 3.68196 23.6782 3.63078 23.6741C3.53544 23.6887 3.43751 23.6963 3.33781 23.6963C2.30932 23.6963 1.46966 22.8894 1.41972 21.8754L1.41737 21.7797C1.37203 21.3771 1.34942 20.9723 1.34967 20.5672C1.34967 14.2708 6.44221 9.15506 12.7512 9.11401H13.3436Z" fill="#FF5F5F"/>
<path fill-rule="evenodd" clip-rule="evenodd" d="M13.0475 0C14.6868 0 16.1644 1.00118 16.79 2.53589C17.4157 4.0706 17.0661 5.83599 15.9043 7.00751C14.7426 8.17903 12.9981 8.5255 11.4857 7.88508C9.97318 7.24467 8.99117 5.74375 8.99827 4.08336C9.00801 1.8253 10.818 0 13.0475 0Z" fill="#FF5F5F"/>
<path fill-rule="evenodd" clip-rule="evenodd" d="M8.55915 21.8832V22.9816L12.5574 21.6562L12.7447 23.8237C12.4518 24.1231 12.1309 24.3929 11.7866 24.6292V25.519C12.1468 25.4677 13.0149 25.0723 13.2778 25.0723C13.5408 25.0723 14.4089 25.4677 14.7691 25.519V24.6292C14.425 24.3926 14.1042 24.1228 13.8109 23.8237L13.973 21.6269L17.9965 22.9633V21.8649C17.7276 21.6696 17.4474 21.4911 17.1572 21.3303C16.8727 21.1582 16.5989 20.9898 16.3215 20.8104L14.7547 19.8254C14.4989 19.6717 14.2071 19.5069 14.1927 19.3494C14.1675 19.0346 14.272 17.2405 14.2756 16.7571C14.2756 15.9992 13.7317 15.4793 13.2706 15.494C12.8096 15.5086 12.2584 15.9956 12.2584 16.7498C12.2584 17.2331 12.3737 19.0346 12.3521 19.3494C12.3521 19.5069 12.0459 19.668 11.7902 19.8254L10.2269 20.8104C9.94233 20.9898 9.67218 21.1765 9.38762 21.3303C9.09742 21.491 8.81714 21.6695 8.54834 21.8649" fill="#18262F"/>
<path fill-rule="evenodd" clip-rule="evenodd" d="M21.2724 29.0554C21.0821 29.0561 20.8932 29.0886 20.7137 29.1516L20.6171 29.1979C20.5558 29.2229 20.496 29.2515 20.438 29.2834L17.2366 30.8183L20.4165 32.2428C20.5096 32.2966 20.608 32.3407 20.7102 32.3746C20.8901 32.4355 21.0788 32.4667 21.2688 32.4672C22.2191 32.4672 22.9894 31.7011 22.9894 30.756C22.9894 29.8109 22.2191 29.0448 21.2688 29.0448L21.2724 29.0554ZM5.25481 29.0448C5.44629 29.0454 5.63632 29.0779 5.81702 29.1409L5.9137 29.1872C5.97458 29.2121 6.03187 29.2406 6.08917 29.2727L9.29053 30.8076L6.11065 32.2321C6.01734 32.2855 5.91899 32.3296 5.81702 32.3639C5.63579 32.4244 5.44598 32.4557 5.25481 32.4565C4.30452 32.4565 3.53416 31.6904 3.53416 30.7453C3.53416 29.8002 4.30452 29.0341 5.25481 29.0341V29.0448ZM5.25481 25.519C5.97954 25.519 6.69643 25.6682 7.3604 25.9571C7.48285 26.0061 7.60241 26.062 7.7185 26.1245L13.269 28.7919L18.8194 26.1245C18.9355 26.062 19.0551 26.0062 19.1775 25.9571C21.4476 24.9731 24.1004 25.6956 25.5494 27.6927C26.9985 29.6898 26.852 32.4213 25.1976 34.2538C23.5431 36.0863 20.8281 36.5241 18.6762 35.3056L13.2654 32.72L7.86532 35.3163C5.94655 36.4008 3.55121 36.1799 1.86577 34.7628C0.180331 33.3457 -0.437297 31.0335 0.318812 28.9713C1.07492 26.9092 3.0442 25.5352 5.25123 25.5297L5.25481 25.519Z" fill="#FF5F5F"/>
<path d="M42.885 31.285C40.785 31.285 38.9067 30.865 37.25 30.025C35.6167 29.185 34.3333 28.03 33.4 26.56C32.4667 25.0667 32 23.3633 32 21.45C32 19.5367 32.4667 17.845 33.4 16.375C34.3333 14.905 35.6167 13.7617 37.25 12.945C38.9067 12.105 40.785 11.685 42.885 11.685C45.0317 11.685 46.8867 12.14 48.45 13.05C50.0133 13.96 51.1217 15.2433 51.775 16.9L46.63 19.525C46.1867 18.6383 45.6383 17.9967 44.985 17.6C44.3317 17.18 43.62 16.97 42.85 16.97C42.08 16.97 41.38 17.145 40.75 17.495C40.12 17.845 39.6183 18.3583 39.245 19.035C38.895 19.6883 38.72 20.4933 38.72 21.45C38.72 22.43 38.895 23.2583 39.245 23.935C39.6183 24.6117 40.12 25.125 40.75 25.475C41.38 25.825 42.08 26 42.85 26C43.62 26 44.3317 25.8017 44.985 25.405C45.6383 24.985 46.1867 24.3317 46.63 23.445L51.775 26.07C51.1217 27.7267 50.0133 29.01 48.45 29.92C46.8867 30.83 45.0317 31.285 42.885 31.285Z" fill="#18262F"/>
<path d="M66.1455 31.285C64.4422 31.285 63.0188 30.935 61.8755 30.235C60.7555 29.535 59.9155 28.4617 59.3555 27.015C58.7955 25.5683 58.5155 23.7133 58.5155 21.45C58.5155 19.2333 58.8072 17.4017 59.3905 15.955C59.9972 14.5083 60.8722 13.435 62.0155 12.735C63.1588 12.035 64.5355 11.685 66.1455 11.685C67.8722 11.685 69.4355 12.0817 70.8355 12.875C72.2588 13.6683 73.3788 14.8 74.1955 16.27C75.0355 17.7167 75.4555 19.4433 75.4555 21.45C75.4555 23.48 75.0355 25.23 74.1955 26.7C73.3788 28.1467 72.2588 29.2783 70.8355 30.095C69.4355 30.8883 67.8722 31.285 66.1455 31.285ZM54.2105 30.97V5H60.8605V15.185L60.5105 21.45L60.5455 27.715V30.97H54.2105ZM64.7455 26C65.4922 26 66.1572 25.825 66.7405 25.475C67.3472 25.125 67.8255 24.6117 68.1755 23.935C68.5488 23.235 68.7355 22.4067 68.7355 21.45C68.7355 20.4933 68.5488 19.6883 68.1755 19.035C67.8255 18.3583 67.3472 17.845 66.7405 17.495C66.1572 17.145 65.4922 16.97 64.7455 16.97C63.9988 16.97 63.3222 17.145 62.7155 17.495C62.1322 17.845 61.6538 18.3583 61.2805 19.035C60.9305 19.6883 60.7555 20.4933 60.7555 21.45C60.7555 22.4067 60.9305 23.235 61.2805 23.935C61.6538 24.6117 62.1322 25.125 62.7155 25.475C63.3222 25.825 63.9988 26 64.7455 26Z" fill="#18262F"/>
<path d="M88.2414 31.285C86.1414 31.285 84.2631 30.865 82.6064 30.025C80.9731 29.185 79.6898 28.03 78.7564 26.56C77.8231 25.0667 77.3564 23.3633 77.3564 21.45C77.3564 19.5367 77.8231 17.845 78.7564 16.375C79.6898 14.905 80.9731 13.7617 82.6064 12.945C84.2631 12.105 86.1414 11.685 88.2414 11.685C90.3881 11.685 92.2431 12.14 93.8064 13.05C95.3698 13.96 96.4781 15.2433 97.1314 16.9L91.9864 19.525C91.5431 18.6383 90.9948 17.9967 90.3414 17.6C89.6881 17.18 88.9764 16.97 88.2064 16.97C87.4364 16.97 86.7364 17.145 86.1064 17.495C85.4764 17.845 84.9748 18.3583 84.6014 19.035C84.2514 19.6883 84.0764 20.4933 84.0764 21.45C84.0764 22.43 84.2514 23.2583 84.6014 23.935C84.9748 24.6117 85.4764 25.125 86.1064 25.475C86.7364 25.825 87.4364 26 88.2064 26C88.9764 26 89.6881 25.8017 90.3414 25.405C90.9948 24.985 91.5431 24.3317 91.9864 23.445L97.1314 26.07C96.4781 27.7267 95.3698 29.01 93.8064 29.92C92.2431 30.83 90.3881 31.285 88.2414 31.285Z" fill="#18262F"/>
<path d="M108.413 31.285C105.986 31.285 104.096 30.69 102.743 29.5C101.39 28.2867 100.713 26.4667 100.713 24.04V7.765H107.363V23.97C107.363 24.6467 107.55 25.1833 107.923 25.58C108.296 25.9533 108.775 26.14 109.358 26.14C110.151 26.14 110.828 25.9417 111.388 25.545L113.033 30.2C112.473 30.5733 111.785 30.8417 110.968 31.005C110.151 31.1917 109.3 31.285 108.413 31.285ZM97.9479 17.67V12.7H111.703V17.67H97.9479Z" fill="#18262F"/>
</svg>
