<svg width="48" height="48" viewBox="0 0 48 48" fill="none" xmlns="http://www.w3.org/2000/svg">
<path d="M24 44.8125C35.4944 44.8125 44.8125 35.4944 44.8125 24C44.8125 12.5056 35.4944 3.1875 24 3.1875C12.5056 3.1875 3.1875 12.5056 3.1875 24C3.1875 35.4944 12.5056 44.8125 24 44.8125Z" stroke="#F0CC7F" stroke-width="3"/>
<path d="M23.6097 34.2122C25.6147 34.2122 27.2329 33.6812 28.4643 32.6191C29.6957 31.5571 30.3114 30.1289 30.3114 28.3345C30.3114 27.2175 30.0253 26.2562 29.4531 25.4506C28.8809 24.6449 28.0455 24.0544 26.9468 23.679C27.8532 23.2762 28.5925 22.6788 29.1647 21.8869C29.7369 21.0949 30.023 20.2504 30.023 19.3531C30.023 17.5679 29.4531 16.174 28.3133 15.1715C27.1734 14.169 25.6056 13.6677 23.6097 13.6677C22.4012 13.6677 21.3095 13.9035 20.3344 14.375C19.3594 14.8465 18.5995 15.5034 18.0548 16.3456C17.51 17.1879 17.2377 18.1218 17.2377 19.1472H20.5748C20.5748 18.314 20.8632 17.6388 21.4399 17.1216C22.0167 16.6043 22.7537 16.3456 23.6509 16.3456C24.6763 16.3456 25.4385 16.6089 25.9375 17.1353C26.4364 17.6617 26.6859 18.401 26.6859 19.3531C26.6859 20.3419 26.3861 21.0972 25.7864 21.6191C25.1867 22.1409 24.3742 22.4064 23.3488 22.4156H21.3163V25.0523H23.2802C24.507 25.0523 25.4316 25.3361 26.0542 25.9037C26.6768 26.4714 26.988 27.2816 26.988 28.3345C26.988 29.3782 26.6905 30.1747 26.0954 30.724C25.5003 31.2733 24.6855 31.548 23.6509 31.548C22.653 31.548 21.8588 31.2733 21.2683 30.724C20.6778 30.1747 20.3825 29.4606 20.3825 28.5817H17.0454C17.0454 30.2845 17.6588 31.6487 18.8856 32.6741C20.1124 33.6995 21.6871 34.2122 23.6097 34.2122Z" fill="#F0CC7F"/>
</svg>
