<svg width="48" height="48" viewBox="0 0 48 48" fill="none" xmlns="http://www.w3.org/2000/svg">
<path d="M24 44.8125C35.4944 44.8125 44.8125 35.4944 44.8125 24C44.8125 12.5056 35.4944 3.1875 24 3.1875C12.5056 3.1875 3.1875 12.5056 3.1875 24C3.1875 35.4944 12.5056 44.8125 24 44.8125Z" stroke="#FF5F5F" stroke-width="3"/>
<path d="M30.9018 33.9375V31.2733H21.6183L26.5073 26.0411C27.789 24.6495 28.7114 23.4066 29.2744 22.3126C29.8375 21.2185 30.119 20.1725 30.119 19.1746C30.119 17.4534 29.5583 16.1053 28.4367 15.1303C27.3152 14.1552 25.784 13.6677 23.8431 13.6677C22.4973 13.6677 21.3094 13.9378 20.2794 14.478C19.2494 15.0181 18.4575 15.7757 17.9036 16.7508C17.3497 17.7258 17.0728 18.8221 17.0728 20.0398H20.4099C20.4099 18.8954 20.7074 17.9936 21.3025 17.3344C21.8976 16.6752 22.7353 16.3456 23.8156 16.3456C24.722 16.3456 25.443 16.6386 25.9785 17.2245C26.5141 17.8105 26.7819 18.5795 26.7819 19.5317C26.7819 20.2549 26.5782 20.9759 26.1708 21.6946C25.7634 22.4133 25.079 23.3082 24.1177 24.3794L17.4573 31.6441V33.9375H30.9018Z" fill="#FF5F5F"/>
</svg>
