<svg width="197" height="37" viewBox="0 0 197 37" fill="none" xmlns="http://www.w3.org/2000/svg">
<g clip-path="url(#clip0_158_350)">
<path d="M36.9375 0H0V37H36.9375V0Z" fill="#00B67A"/>
<path d="M76.9531 0H40.0156V37H76.9531V0Z" fill="#00B67A"/>
<path d="M116.969 0H80.0312V37H116.969V0Z" fill="#00B67A"/>
<path d="M156.984 0H120.047V37H156.984V0Z" fill="#00B67A"/>
<path d="M197 0H160.062V37H197V0Z" fill="#00B67A"/>
<path d="M18.4691 24.9368L24.0867 23.5108L26.4338 30.7566L18.4691 24.9368ZM31.3973 15.5712H21.5088L18.4691 6.24414L15.4295 15.5712H5.54102L13.5441 21.3525L10.5045 30.6796L18.5076 24.8983L23.4326 21.3525L31.3973 15.5712Z" fill="white"/>
<path d="M58.4848 24.9368L64.1023 23.5108L66.4494 30.7566L58.4848 24.9368ZM71.4129 15.5712H61.5244L58.4848 6.24414L55.4451 15.5712H45.5566L53.5598 21.3525L50.5201 30.6796L58.5232 24.8983L63.4482 21.3525L71.4129 15.5712Z" fill="white"/>
<path d="M98.5004 24.9368L104.118 23.5108L106.465 30.7566L98.5004 24.9368ZM111.429 15.5712H101.54L98.5004 6.24414L95.4607 15.5712H85.5723L93.5754 21.3525L90.5357 30.6796L98.5389 24.8983L103.464 21.3525L111.429 15.5712Z" fill="white"/>
<path d="M138.516 24.9368L144.134 23.5108L146.481 30.7566L138.516 24.9368ZM151.444 15.5712H141.556L138.516 6.24414L135.476 15.5712H125.588L133.591 21.3525L130.551 30.6796L138.554 24.8983L143.479 21.3525L151.444 15.5712Z" fill="white"/>
<path d="M178.532 24.9368L184.149 23.5108L186.496 30.7566L178.532 24.9368ZM191.46 15.5712H181.571L178.532 6.24414L175.492 15.5712H165.604L173.607 21.3525L170.567 30.6796L178.57 24.8983L183.495 21.3525L191.46 15.5712Z" fill="white"/>
</g>
<defs>
<clipPath id="clip0_158_350">
<rect width="197" height="37" fill="white"/>
</clipPath>
</defs>
</svg>
