<svg width="320" height="110" viewBox="0 0 320 110" fill="none" xmlns="http://www.w3.org/2000/svg">
<path d="M279.695 43L267.702 60.6174C266.124 62.9336 263.562 65.1674 260.469 65.4047V65.9461H273.808C277.349 65.9461 279.932 63.6057 281.68 61.028L293.995 43H279.696H279.695Z" fill="#F0CC7F"/>
<path d="M58.8315 65.946V44.9354H64.8692V65.946H58.83H58.8315ZM198.084 65.946L183.575 53.4698V65.946H178.477V44.9354H182.808L197.123 57.2155V44.9354H202.222V65.946H198.084ZM229.635 51.7135C226.907 50.3493 223.833 49.2452 219.759 49.2452C214.894 49.2452 211.266 51.8001 211.266 55.3526C211.266 58.9918 214.959 61.5708 219.715 61.5708C223.643 61.5708 226.755 60.552 229.827 58.753V63.9524C227.117 65.3166 223.514 66.334 219.46 66.334C211.182 66.334 204.673 62.0469 204.673 55.3526C204.673 48.7678 211.309 44.5432 219.437 44.5432C223.278 44.5432 226.755 45.2793 229.635 46.4729V51.7135ZM98.4713 65.946V44.9354H118.653V49.4399H104.509V54.6606H118.335V59.1665H104.509V65.9475H98.4713V65.946ZM233.286 65.946V44.9354H254.235V49.4399H239.322V53.0805H254.001V57.585H239.322V61.4415H254.171V65.946H233.286ZM139.626 58.061L147.967 65.9475H141.524C140.095 65.9475 139.157 65.4928 138.409 64.7538L132.734 59.1651C132.668 59.1057 132.591 59.0599 132.507 59.0304C132.423 59.0009 132.334 58.9882 132.245 58.9932H128.383V65.946H122.345V44.9354H135.424C142.208 44.9354 145.067 48.0331 145.067 51.4549C145.067 55.4407 141.567 57.3448 139.626 58.0624V58.061ZM134.806 54.5952C137.193 54.5952 138.345 53.3618 138.345 51.9749C138.345 50.588 137.322 49.4399 134.806 49.4399H128.383V54.5952H134.806ZM87.8025 58.0624L96.1437 65.946H89.7024C88.2729 65.946 87.3336 65.4913 86.5876 64.7538L80.9122 59.1651C80.8458 59.1056 80.7683 59.0597 80.6842 59.0302C80.6001 59.0007 80.5109 58.9881 80.4219 58.9932H76.5611V65.946H70.5219V44.9354H83.6007C90.3844 44.9354 93.2449 48.0331 93.2449 51.4549C93.2449 55.4407 89.745 57.3448 87.8025 58.0624ZM82.9825 54.5952C85.3726 54.5952 86.525 53.3618 86.525 51.9749C86.525 50.588 85.5005 49.4399 82.9825 49.4399H76.5611V54.5952H82.9825ZM49.3791 65.946L46.7346 61.3321H35.1721L32.7607 65.946H27L38.5213 44.9567H43.7705L56.8279 65.946H49.3791ZM37.4755 56.9555H44.2181L40.7182 50.544L37.4755 56.9555ZM169.943 65.946L167.361 61.3321H156.099L153.773 65.946H148.16L159.382 44.9567H164.48L177.175 65.946H169.943ZM158.359 56.9555H164.929L161.516 50.544L158.359 56.9555Z" fill="#F0CC7F"/>
</svg>
