<svg width="320" height="110" viewBox="0 0 320 110" fill="none" xmlns="http://www.w3.org/2000/svg">
<path d="M82.8155 71.3594H73.7256C70.8774 71.3594 71.1198 68.9961 70.8168 66.9963V54.0281C70.8168 54.0281 72.8166 53.9675 75.0588 53.9675C77.5433 53.9675 80.6945 53.6039 83.7245 55.3007C82.1489 51.9677 78.7553 49.9074 75.0588 50.0285H70.8774V45.8472C70.8774 45.8472 70.8774 42.2113 69.9685 41.1811H75.9678C81.1187 41.1811 85.1182 41.1205 89.2996 43.8474C89.2996 43.8474 88.5118 36.9997 78.5129 36.9997H59C59 36.9997 62.3936 39.9085 62.2724 45.7866L62.3936 69.4203C62.3936 75.359 64.7569 75.5408 64.7569 75.5408H83.9669C88.33 75.5408 89.845 72.4502 89.845 70.7535L89.9056 68.5113C89.9056 68.5113 88.5118 71.3594 82.8155 71.3594Z" fill="#F0CC7F"/>
<path d="M133.962 69.3598V52.8162C133.962 46.3927 128.75 44.6959 124.811 44.6959C119.66 44.6959 118.085 48.9984 117.418 50.5134C116.267 46.5139 112.207 44.6959 108.934 44.6959C102.693 44.6959 101.117 50.6346 101.117 50.6346C101.117 50.6346 100.996 44.8777 95.9661 44.8777H91.0576C91.0576 44.8777 93.9058 46.0291 93.9058 50.9982V69.3598C93.9058 75.4197 96.3297 75.5409 96.3297 75.5409H104.45C102.511 74.0865 101.359 71.7837 101.359 69.2992V52.998C101.481 52.2708 102.693 49.8468 106.147 49.8468C108.147 49.8468 110.328 51.9072 110.268 54.21V69.3598C110.268 75.4803 112.692 75.5409 112.692 75.5409H120.812C118.873 74.0259 117.721 71.7837 117.721 69.2992V52.998C118.509 50.6346 121.054 49.3014 123.478 50.0892C125.296 50.6952 126.569 52.3314 126.629 54.2706C126.629 54.2706 126.629 68.0872 126.629 69.3598C126.69 75.5409 129.053 75.4803 129.053 75.4803C133.295 75.4803 137.174 75.4803 137.174 75.4803C135.174 74.0259 134.022 71.7837 133.962 69.3598Z" fill="#F0CC7F"/>
<path d="M148.141 69.3597C148.141 71.7836 149.292 74.0864 151.231 75.5408C151.231 75.5408 147.353 75.5408 143.111 75.5408C143.111 75.5408 140.626 75.6014 140.626 69.4203V50.9375C140.626 46.0896 137.839 44.817 137.839 44.817H142.747C144.505 44.817 148.08 44.817 148.08 51.6647V69.2385L148.141 69.3597Z" fill="#F0CC7F"/>
<path d="M173.109 47.1804C173.109 47.1804 172.321 44.9989 168.988 44.9989C163.898 44.9989 162.686 51.0588 162.686 51.0588C162.261 46.2714 160.989 44.8777 157.413 44.8777H152.505C152.505 44.8777 155.353 46.029 155.353 50.9982V69.3597C155.353 75.4196 157.777 75.5408 157.777 75.5408H165.897C163.958 74.0865 162.807 71.7837 162.807 69.3597V54.2705C162.989 52.9979 163.716 51.8466 164.807 51.18C167.533 49.362 171.109 49.9074 173.23 52.3919L173.109 47.1804Z" fill="#F0CC7F"/>
<path d="M210.861 48.2712C212.558 48.2712 214.194 48.6954 215.649 49.4832V44.8777H208.861V37.8481C207.407 40.1509 205.529 42.2113 203.408 43.9687C201.105 45.8472 196.257 48.2106 196.257 48.2106L201.408 48.2712V69.6021C201.408 75.5408 203.892 75.5408 203.892 75.5408C208.316 75.5408 211.952 75.5408 211.952 75.5408C210.013 74.1471 208.861 71.9049 208.801 69.5415V48.2712C210.982 48.2712 209.528 48.2712 210.861 48.2712Z" fill="#F0CC7F"/>
<path d="M235.465 57.5429C230.92 62.2696 227.345 61.5424 224.497 65.0572C224.497 65.0572 224.981 69.7839 228.557 71.4201C229.769 71.9655 234.798 73.7835 238.01 68.2083V73.1775C238.01 73.1775 235.95 75.6014 229.345 75.6014C221.406 75.6014 215.952 69.3597 215.952 60.8758C215.952 52.5131 220.376 44.817 228.799 44.7565C236.98 44.6353 241.464 51.3012 235.465 57.5429ZM230.496 55.6037C231.829 53.1191 232.92 46.8168 228.314 47.1804C222.982 47.6046 224.012 61.7242 224.012 61.7242C225.769 59.785 228.436 59.3609 230.496 55.6037Z" fill="#F0CC7F"/>
<path d="M144.385 42.3931C146.445 42.3325 148.021 40.6357 148.021 38.636C147.96 36.5756 146.264 35 144.264 35C142.264 35.0606 140.628 36.6968 140.628 38.6965C140.628 40.7569 142.325 42.3931 144.385 42.3931Z" fill="#F0CC7F"/>
<path d="M181.531 72.0261C179.713 72.0261 178.38 70.0869 178.38 68.1477C178.38 60.5122 184.621 59.4214 186.318 57.4217V70.3293C185.53 70.9353 184.803 72.0261 181.531 72.0261ZM186.318 54.4523C184.44 57.7247 169.775 58.4519 172.017 69.7839C172.926 74.2682 175.895 75.6014 179.652 75.6014C183.288 75.6014 185.53 73.7228 186.439 71.9049C186.985 75.2984 188.742 75.5408 188.742 75.5408C192.984 75.5408 196.862 75.5408 196.862 75.5408C194.923 74.0864 193.711 71.8443 193.711 69.4203V52.1495C193.711 48.0288 189.166 44.817 184.318 44.817C181.591 44.7564 178.986 45.5442 176.743 47.0592V52.3919C176.743 52.3919 178.44 48.15 182.622 48.15C186.742 48.15 187.045 50.2104 187.045 51.2406C187.106 52.3313 186.924 53.4827 186.318 54.4523Z" fill="#F0CC7F"/>
<path d="M253.402 67.1782C253.463 69.3598 251.524 72.2079 247.403 72.2079C243.161 72.2079 241.464 67.9054 241.464 67.9054V73.3593C243.767 74.8137 246.433 75.5409 249.16 75.5409C254.675 75.5409 260.311 71.3595 260.189 65.4814C260.129 63.5422 259.462 61.6637 258.311 60.1487C256.432 57.6641 253.039 55.9067 250.372 54.2706C248.857 53.3616 248.07 51.6648 248.07 51.1194C248.009 50.0892 248.554 48.0288 252.615 48.0288C256.614 48.0288 258.372 52.2708 258.372 52.2708V47.1199C256.129 45.5443 253.402 44.6959 250.615 44.6959C245.767 44.6959 241.343 47.9076 241.464 52.0284C241.525 55.6643 243.04 57.9671 246.009 60.2093C247.342 61.1789 248.736 62.0273 250.191 62.8151C252.493 64.0876 253.342 65.6632 253.402 67.1782Z" fill="#F0CC7F"/>
</svg>
