<svg width="320" height="110" viewBox="0 0 320 110" fill="none" xmlns="http://www.w3.org/2000/svg">
<path d="M24 76.6886C24.5914 76.3701 24.8644 75.6422 24.8644 75.0508V59.8109C24.8644 59.174 24.5914 58.4461 24 58.1277H31.2788C34.5087 58.1277 37.6932 59.4469 37.6932 63.1318C37.6932 65.088 36.01 66.6347 34.1448 66.9532C36.7834 66.9077 39.3309 68.5454 39.3309 71.4569C39.3309 75.6422 34.9637 76.6886 31.8702 76.6886H24ZM29.8685 59.6744C29.5501 59.6744 29.2771 59.6744 28.6857 59.7654V66.2708H29.4136C31.6427 66.2708 33.7809 65.5884 33.7809 62.9953C33.7809 60.4478 32.0976 59.6744 29.8685 59.6744ZM30.3234 67.954C29.7775 67.954 29.3226 67.954 28.6857 67.9995V74.8689C29.5046 75.0053 30.3689 75.0963 31.1878 75.0963C33.053 75.0963 34.9637 74.2775 34.9637 71.4114C34.9182 68.5909 32.689 67.954 30.3234 67.954ZM46.5187 59.6744C46.2003 59.6744 45.8818 59.7199 45.5634 59.7654V66.1798C45.8818 66.1798 46.1548 66.2253 46.4278 66.2253C48.5204 66.2253 50.0672 65.088 50.0672 62.8134C50.0672 60.4933 48.5659 59.6744 46.5187 59.6744ZM55.8902 76.7795C55.1623 76.7795 54.3889 76.825 53.7065 76.5976C52.4328 76.2336 50.704 73.3676 50.0217 72.2758C48.9298 70.4561 48.02 67.954 45.5634 67.9085V75.0053C45.5634 75.6422 45.8364 76.3701 46.4278 76.6431H40.8777C41.4691 76.3246 41.742 75.6422 41.742 75.0053V59.7654C41.742 59.1285 41.4691 58.4006 40.8777 58.0822H47.6106C50.5221 58.0822 54.207 59.2195 54.207 62.7224C54.207 65.6794 51.7504 67.1806 49.0663 67.1806C52.9332 67.1806 55.2078 76.2791 59.4841 76.3246C58.3013 76.6431 57.073 76.7795 55.8902 76.7795ZM59.7115 76.6886C60.1665 76.4611 60.6669 75.8697 60.6669 75.0508V59.8109C60.6669 58.9465 60.1665 58.3551 59.7115 58.1277H65.4436C64.9432 58.3551 64.4882 58.9465 64.4882 59.8109V75.0508C64.4882 75.8697 64.9432 76.5066 65.4436 76.6886H59.7115ZM72.131 76.6886C72.7224 76.4156 73.0408 75.6877 73.0408 75.0508V60.2658H68.9465C67.9912 60.2658 66.8538 60.4023 66.035 60.8572L67.3088 58.1277H80.9565C82.0483 58.1277 83.1856 58.0822 84.2774 57.8547C83.777 59.265 82.2303 60.3113 81.3204 60.3113C80.2286 60.2658 78.4544 60.2203 76.9077 60.2203V75.0508C76.9077 75.6877 77.2261 76.4156 77.8175 76.6886H72.131ZM84.9143 76.6886C85.3693 76.4611 85.8697 75.8697 85.8697 75.0508V59.8109C85.8697 58.9465 85.3693 58.3551 84.9143 58.1277H90.6464C90.146 58.3551 89.691 58.9465 89.691 59.8109V75.0508C89.691 75.8697 90.146 76.5066 90.6464 76.6886H84.9143ZM101.792 72.4578C101.792 68.9094 93.4669 68.136 93.4669 62.4494C93.4669 58.9465 96.7878 57.8092 99.6994 57.8092C101.019 57.8092 102.884 57.9912 104.112 58.5371L104.34 61.9945C103.612 60.4478 101.747 59.3559 100.063 59.3559C98.6985 59.3559 97.2883 60.0383 97.2883 61.5851C97.2883 65.27 105.75 66.1343 105.75 71.5024C105.75 75.3693 102.338 77.007 98.926 77.007C97.1518 77.007 94.6952 76.6431 93.1939 75.6422C93.103 75.0053 93.0575 74.3684 93.0575 73.7315C93.0575 72.9582 93.103 72.2303 93.2394 71.4569C94.1948 73.5951 96.1509 75.2783 98.562 75.2783C100.427 75.2783 101.792 74.5049 101.792 72.4578ZM119.671 76.6886C120.08 76.5066 120.489 75.8697 120.489 75.0508V68.136C119.489 68.045 118.124 67.954 116.532 67.954C114.939 67.954 113.529 67.9995 112.528 68.136V75.0508C112.528 75.8697 112.938 76.5066 113.347 76.6886H107.842C108.252 76.5066 108.707 75.8697 108.707 75.0508V59.8109C108.707 58.9465 108.252 58.3551 107.842 58.1277H113.347C112.938 58.3551 112.528 58.9465 112.528 59.8109V65.9978C113.529 66.0888 114.939 66.1798 116.532 66.1798C118.078 66.1798 119.489 66.1343 120.489 65.9978V59.7654C120.489 58.901 120.08 58.3096 119.671 58.0822H125.175C124.766 58.3096 124.356 58.901 124.356 59.7654V75.0053C124.356 75.8242 124.766 76.4611 125.175 76.6431H119.671V76.6886Z" fill="#F0CC7F"/>
<path d="M145.556 76.6886C145.738 76.5066 145.874 76.3701 145.874 76.0517C145.874 75.9607 145.829 75.7332 145.692 75.4148C145.692 75.4148 144.145 71.275 144.009 70.7745C142.872 70.6381 141.689 70.6381 140.506 70.6381C139.414 70.6381 138.277 70.6836 137.185 70.7745C137.049 71.184 135.411 75.3238 135.411 75.3238C135.183 75.8697 135.092 76.0517 135.092 76.1881C135.092 76.4611 135.32 76.5976 135.547 76.6886H131.771C132.317 76.4156 132.818 75.8242 133.045 75.2783L139.187 59.4014C139.232 59.3559 139.232 59.265 139.232 59.174C139.232 58.7191 138.959 58.3096 138.55 58.1277H143.372L149.605 75.2783C149.877 75.9607 150.423 76.4611 150.878 76.734L145.556 76.6886ZM140.733 61.6306L137.913 68.8639C138.732 68.9548 139.642 69.0003 140.461 69.0003C141.416 69.0003 142.417 69.0003 143.327 68.8639L140.733 61.6306ZM151.834 76.6886C152.289 76.4611 152.789 75.8697 152.789 75.0508V59.8109C152.789 58.9465 152.334 58.3551 151.834 58.1277H157.566C157.065 58.3551 156.61 58.9465 156.61 59.8109V75.0508C156.61 75.8697 157.065 76.5066 157.566 76.6886H151.834ZM166.255 59.6744C165.936 59.6744 165.663 59.7199 165.345 59.7654V66.1798C165.663 66.1798 165.936 66.2253 166.209 66.2253C168.302 66.2253 169.849 65.088 169.849 62.8134C169.849 60.4933 168.302 59.6744 166.255 59.6744ZM176.081 76.7795C175.353 76.7795 174.58 76.825 173.897 76.5976C172.624 76.2336 170.895 73.3676 170.213 72.2758C169.121 70.4561 167.756 67.9085 165.345 67.9085V75.0053C165.345 75.6422 165.618 76.3701 166.209 76.6431H160.614C161.205 76.3246 161.478 75.6422 161.478 75.0053V59.7654C161.478 59.1285 161.205 58.4006 160.614 58.0822H167.347C170.258 58.0822 173.897 59.2195 173.897 62.7224C173.897 65.6794 171.213 67.1806 169.212 67.1806C173.215 67.4081 175.626 76.3246 179.629 76.3246C178.492 76.6431 177.309 76.7795 176.081 76.7795ZM199.282 59.9019L193.641 76.6886C193.186 76.6886 192.731 76.5066 192.458 76.3246C191.912 75.7787 191.003 73.5496 190.684 72.7307L188.137 66.2708L184.452 76.6886H182.723L176.4 59.8564C176.127 59.1285 175.672 58.4461 174.989 58.0822H180.448C180.221 58.2641 180.039 58.4461 180.039 58.8555C180.039 59.0375 180.13 59.3105 180.221 59.4924L184.361 70.6381L188.728 58.0822L193.55 70.1831L197.19 59.2195C197.281 58.901 197.326 58.81 197.326 58.6281C197.326 58.4006 197.235 58.2641 197.008 58.0822H200.647C200.01 58.4461 199.51 59.2195 199.282 59.9019ZM206.061 61.6306L203.24 68.8639C204.104 68.9548 204.969 69.0003 205.788 69.0003C206.743 69.0003 207.744 69.0003 208.654 68.8639L206.061 61.6306ZM210.883 76.6886C211.065 76.5066 211.201 76.3701 211.201 76.0517C211.201 75.9607 211.156 75.7332 211.019 75.4148C211.019 75.4148 209.518 71.275 209.336 70.7745C208.199 70.6381 206.97 70.6381 205.833 70.6381C204.741 70.6381 203.604 70.6836 202.512 70.7745C202.33 71.184 200.738 75.3238 200.738 75.3238C200.511 75.8697 200.42 76.0517 200.42 76.1881C200.42 76.4611 200.647 76.5976 200.829 76.6886H197.099C197.644 76.4156 198.145 75.8242 198.372 75.2783L204.559 59.4014C204.559 59.3559 204.605 59.265 204.605 59.174C204.605 58.7191 204.332 58.3096 203.922 58.1277H208.745L214.977 75.2783C215.25 75.9607 215.796 76.4611 216.251 76.734L210.883 76.6886ZM227.715 60.0383L223.302 67.772V75.0508C223.302 75.6422 223.53 76.4156 224.121 76.6886H218.662C219.208 76.3701 219.481 75.5967 219.481 75.0508V67.772L215.659 61.6306C215.296 61.0392 213.703 58.4006 211.793 58.4006C212.339 58.2186 213.931 57.9002 215.023 57.9002C216.842 57.9002 217.707 58.0822 218.798 59.8109L222.347 65.4064C222.665 64.8605 225.44 59.9928 225.44 59.9928C225.759 59.4014 226.032 58.992 226.032 58.7645C226.032 58.4916 225.895 58.3096 225.622 58.1277H229.58C228.761 58.4461 228.124 59.3105 227.715 60.0383ZM237.996 72.4578C237.996 68.9094 229.671 68.136 229.671 62.4494C229.671 58.9465 232.992 57.8092 235.904 57.8092C237.223 57.8092 239.088 57.9912 240.271 58.5371L240.498 61.9945C239.77 60.4478 237.905 59.3559 236.222 59.3559C234.857 59.3559 233.447 60.0383 233.447 61.5851C233.447 65.27 241.909 66.1343 241.909 71.5024C241.909 75.3693 238.542 77.007 235.085 77.007C233.311 77.007 230.854 76.6431 229.353 75.6422C229.262 75.0053 229.216 74.3684 229.216 73.7315C229.216 72.9582 229.307 72.2303 229.398 71.4569C230.354 73.5951 232.31 75.2783 234.721 75.2783C236.631 75.2783 237.996 74.5049 237.996 72.4578Z" fill="#F0CC7F"/>
<path d="M289.311 45.0713C286.172 48.1648 279.394 50.8489 276.073 52.0772C271.524 53.8059 269.522 54.3973 266.975 55.2161C264.109 56.1715 258.331 57.9002 258.331 57.9002C270.296 61.4486 278.712 62.5404 278.712 62.5404C278.712 62.5404 282.624 61.3121 288.856 57.9912C292.223 56.2625 293.861 55.1252 295.043 54.0333C295.498 53.6239 296.59 52.4866 296.909 50.9853C296.909 50.8944 297 50.5759 297 50.303C297 50.303 297 50.121 297 49.939C297 49.7571 296.954 49.6206 296.954 49.6206C296.954 49.6206 296.909 49.2566 296.818 49.0292C296.727 48.8017 296.363 48.0283 295.726 47.5279C295.316 47.2095 294.588 46.3451 291.995 45.4353C291.131 45.1168 289.675 44.8439 289.675 44.8439L289.311 45.0713Z" fill="#F0CC7F" fill-opacity="0.5"/>
<path d="M296.954 50.2575C296.954 50.2575 296.955 49.939 296.864 49.6661C296.818 49.3931 296.682 49.1657 296.5 48.9382C296.318 48.6198 295.999 48.3013 295.635 47.8919C295.317 47.6189 294.998 47.346 294.589 47.073C292.951 46.0267 290.859 45.3898 288.993 45.1623C286.127 44.7984 282.806 44.8439 282.488 44.8439C281.442 44.8439 274.527 44.8894 272.798 44.9349C264.928 45.1168 255.329 45.1168 252.827 45.1168C226.851 45.2533 215.523 44.6619 202.922 42.1598C192.231 40.0217 186.271 38.02 186.271 38.02C195.734 37.7016 250.825 35.427 260.879 35.154C267.475 34.972 272.116 34.9265 275.892 35.154C277.802 35.245 279.576 35.427 281.851 35.7909C283.853 36.1548 285.672 36.7007 286.764 37.1102C288.993 37.929 290.904 39.1573 291.814 40.3856C291.814 40.3856 292.087 40.6586 292.451 41.159C292.86 41.7504 293.361 42.4783 293.543 42.7512C294.907 44.7984 295.544 46.1177 295.772 46.5726C295.999 47.0275 296.227 47.5279 296.454 48.0284C296.636 48.5288 296.727 48.8017 296.818 48.9837C296.954 49.4841 297 49.939 297 50.0755L296.954 50.2575Z" fill="#F0CC7F"/>
</svg>
