<svg width="320" height="110" viewBox="0 0 320 110" fill="none" xmlns="http://www.w3.org/2000/svg">
<path d="M14.2591 35C12.6646 43.2727 18.5278 58.9405 29.1246 65.7678H29.1281C30.3402 66.5265 30.9956 66.7505 30.9956 66.7505C31.151 66.8145 31.0436 66.9279 30.9652 66.9767L17.2951 75.7265C17.2513 75.7546 17.1451 75.8358 17.1871 75.9224C17.2197 75.9889 17.3596 75.9483 17.3964 75.9359C28.3672 72.0801 36.3272 68.9106 41.1941 66.5985C46.1282 64.2546 47.7877 62.9159 47.607 62.2489C47.4362 61.6227 45.6059 61.8901 44.0983 61.7525C42.7264 61.6274 40.9659 61.38 38.8504 60.6449C30.9398 57.8489 23.9021 54.2886 14.2591 35ZM91.1499 54.2995L82.292 72.8662C80.9673 75.4064 79.5026 75.4597 79.5026 75.4597L79.3675 75.6016H85.436L85.2874 75.4597C85.2874 75.4597 83.5934 75.1256 84.6728 72.8662L86.26 69.5905H93.8548L95.3947 72.8662C96.4669 75.1256 94.7767 75.4597 94.7767 75.4597L94.6416 75.6016H102.993L102.851 75.4597C102.851 75.4597 101.311 75.4497 100.068 72.8662L91.1499 54.2995ZM154.992 54.2995L146.137 72.8662C144.812 75.4064 143.351 75.4597 143.351 75.4597L143.213 75.6016H149.271L149.14 75.4597C149.14 75.4597 147.443 75.1256 148.515 72.8662L150.105 69.5905H157.7L159.24 72.8662C160.32 75.1256 158.626 75.4597 158.626 75.4597L158.487 75.6016H166.835L166.696 75.4597C166.696 75.4597 165.156 75.4497 163.91 72.8662L154.992 54.2995ZM71.5126 55.0019C64.156 55.0019 59.5412 59.5373 59.5412 65.6293C59.5412 70.5314 63.3502 75.9426 71.2121 75.9426C74.1788 75.9426 77.6385 74.7641 77.6385 74.7641L79.2291 69.3271L79.0535 69.4386C79.0535 69.4386 76.4765 73.6834 71.6815 73.6834C67.3211 73.6834 64.3129 70.8241 64.3129 65.6023C64.3129 60.3864 67.2375 56.9741 71.8402 56.9741C76.6159 56.9741 78.3342 60.6921 78.3342 60.6921L78.449 60.7901V56.4C78.449 56.4 75.587 55.0019 71.5127 55.0019L71.5126 55.0019ZM100.244 55.0931L100.234 59.132L100.376 59.0273C100.376 59.0273 101.464 57.278 103.847 57.278H107.251V72.8763C107.251 75.2712 105.904 75.4766 105.904 75.4766L105.762 75.6117H113.009L112.874 75.4766C112.874 75.4766 111.516 75.2712 111.516 72.8763L111.533 57.278H114.856C117.246 57.278 118.395 59.0273 118.395 59.0273L118.534 59.132L118.544 55.0931C118.544 55.0931 118.207 55.3227 115.816 55.3227H102.973C100.582 55.3227 100.244 55.0931 100.244 55.0931L100.244 55.0931ZM135.25 55.3194L135.385 55.4511C135.385 55.4511 136.743 55.6244 136.743 58.0176C136.743 60.4073 136.753 63.8496 136.753 63.8496H126.781V58.0176C126.781 55.6244 128.142 55.4612 128.142 55.4612L128.273 55.3227H121.03L121.171 55.4612C121.171 55.4612 122.522 55.6244 122.522 58.0176V72.8763C122.522 75.2712 121.171 75.4766 121.171 75.4766L121.03 75.6117H128.273L128.142 75.4766C128.142 75.4766 126.781 75.2712 126.781 72.8763V65.8387H136.753V72.8763C136.753 75.2712 135.399 75.4766 135.399 75.4766L135.26 75.6117H142.511L142.372 75.4766C142.372 75.4766 141.015 75.2712 141.015 72.8763C141.015 70.487 141.008 60.4073 141.008 58.0176C141.008 55.6244 142.359 55.4511 142.359 55.4511L142.5 55.3194H135.25ZM162.111 55.3228L162.246 55.4613C162.246 55.4613 163.455 55.6613 165.038 58.0514C165.702 59.0618 169.092 63.8008 170.918 66.5682V72.8764C170.918 75.2713 169.564 75.4767 169.564 75.4767L169.429 75.6118H176.672L176.534 75.4767C176.534 75.4767 175.183 75.2713 175.183 72.8764C175.183 71.8665 175.173 69.3309 175.173 66.5682C176.998 63.8008 180.393 59.0766 181.062 58.0649C182.633 55.6769 184.436 55.4613 184.436 55.4613L184.577 55.3228H178.219L178.357 55.4613C178.357 55.4613 180.149 55.9611 178.799 58.0649C178.135 59.0868 176.144 61.9486 174.325 64.7109C172.5 61.9486 170.533 59.0733 169.874 58.0514C168.524 55.9446 170.323 55.4613 170.323 55.4613L170.458 55.3228H162.111ZM90.2212 61.2832L93.0747 67.8683H87.0907L90.2212 61.2832ZM154.067 61.2832L156.92 67.8683H150.936L154.067 61.2832Z" fill="#F0CC7F"/>
<path d="M212.811 67.867L215.937 61.2825L218.794 67.867H212.811ZM225.78 72.8668L216.866 54.3006L208.011 72.8668C206.683 75.4074 205.224 75.4614 205.224 75.4614L205.085 75.602H211.143L211.013 75.4614C211.013 75.4614 209.312 75.1267 210.387 72.8668L211.985 69.5906H219.571L221.115 72.8668C222.189 75.1267 220.494 75.4614 220.494 75.4614L220.359 75.602H228.706L228.566 75.4614C228.566 75.4614 227.027 75.4504 225.78 72.8668H225.78Z" fill="#F0CC7F"/>
<path d="M284.997 55.4512L285.132 55.3191H277.887L278.021 55.4512C278.021 55.4512 279.377 55.6548 279.377 58.0449V72.9046C279.377 75.2939 278.021 75.4941 278.021 75.4941L277.887 75.6347H285.132L284.997 75.4941C284.997 75.4941 283.642 75.2939 283.642 72.9046V58.0449C283.642 55.6548 284.997 55.4512 284.997 55.4512Z" fill="#F0CC7F"/>
<path d="M239.829 73.6831C235.471 73.6831 232.464 70.8231 232.464 65.6013C232.464 60.3859 235.385 56.9746 239.996 56.9746C244.763 56.9746 246.486 60.6936 246.486 60.6936L246.599 60.7909V56.4003C246.599 56.4003 243.738 55.0003 239.667 55.0003C232.308 55.0003 227.691 59.5367 227.691 65.6287C227.691 70.5308 231.503 75.9421 239.365 75.9421C242.334 75.9421 245.79 74.7637 245.79 74.7637L247.377 69.3263L247.205 69.4399C247.205 69.4399 244.624 73.6831 239.829 73.6831" fill="#F0CC7F"/>
<path d="M261.009 55.3193L261.138 55.4599C261.138 55.4599 262.493 55.6601 262.493 58.0502V72.9044C262.493 75.2941 261.138 75.4938 261.138 75.4938L261.009 75.6349H268.249L268.109 75.4938C268.109 75.4938 266.759 75.2941 266.759 72.9044V72.8992V65.7154H271.036C273.421 65.7154 273.621 66.7634 273.621 66.7634L273.762 66.9049V62.5425L273.621 62.6831C273.621 62.6831 273.421 63.726 271.036 63.726H266.759V57.2345H271.9C274.291 57.2345 275.285 58.6075 275.285 58.6075L275.425 58.7155V55.0899C275.425 55.0899 275.079 55.3193 272.688 55.3193L261.009 55.3193Z" fill="#F0CC7F"/>
<path d="M257.112 55.4512L257.247 55.3191H249.996L250.136 55.4512C250.136 55.4512 251.491 55.6548 251.491 58.0449V72.9046C251.491 75.2939 250.136 75.4941 250.136 75.4941L249.996 75.6347H257.247L257.112 75.4941C257.112 75.4941 255.751 75.2939 255.751 72.9046V58.0449C255.751 55.6548 257.112 55.4512 257.112 55.4512Z" fill="#F0CC7F"/>
<path d="M306.699 69.4397C306.699 69.4397 304.129 73.683 299.323 73.683C294.971 73.683 291.953 70.823 291.953 65.6016C291.953 60.3857 294.88 56.9749 299.485 56.9749C304.264 56.9749 305.98 60.6939 305.98 60.6939L306.099 60.7908V56.4001C306.099 56.4001 303.227 54.995 299.16 54.995C291.808 54.995 287.186 59.5366 287.186 65.6286C287.186 70.5311 290.997 75.942 298.864 75.942C301.828 75.942 305.283 74.764 305.283 74.764L306.877 69.3261L306.699 69.4397Z" fill="#F0CC7F"/>
<path d="M197.421 58.0448V57.2604H198.371C199.537 57.2604 200.746 57.2604 201.47 57.4996C203.382 58.0667 204.348 59.5258 204.348 61.823C204.348 63.6988 203.155 66.4884 199.861 66.4884C198.91 66.4884 197.917 66.1099 197.421 65.8828V58.0448ZM201.276 68.4345C205.746 68.4345 208.413 65.0447 208.413 61.7745C208.413 59.9639 207.744 56.7422 203.225 55.6002C202.215 55.343 201.092 55.3272 199.619 55.3272L191.665 55.3194L191.8 55.451C191.8 55.451 193.155 55.6546 193.155 58.0448V72.9045C193.155 75.2938 191.8 75.4939 191.8 75.4939L191.665 75.6345H198.905L198.77 75.4939C198.77 75.4939 197.421 75.2938 197.421 72.9045V67.7263C198.052 68.0075 199.327 68.4345 201.276 68.4345L201.276 68.4345Z" fill="#F0CC7F"/>
</svg>
