<svg width="320" height="110" viewBox="0 0 320 110" fill="none" xmlns="http://www.w3.org/2000/svg">
<path d="M61.7677 51.4204C61.5992 51.4204 61.4573 51.4248 61.3776 51.4337C61.2844 51.6022 61.147 51.8283 60.943 52.1431C64.1175 52.1431 66.9994 52.4046 70.1871 52.9766L69.2871 53.8456C66.4096 53.3357 64.0199 53.1318 60.9741 53.1318C60.5308 53.1318 60.4376 53.1318 60.3313 53.1362C60.2248 53.2958 59.9854 53.6061 59.746 53.8944C60.0164 53.8766 60.5396 53.8678 61.2622 53.8678C63.7673 53.8678 66.1082 54.0539 68.6486 54.4619L67.7486 55.3353C65.8155 55.0338 63.4524 54.8609 61.3331 54.8609C60.5795 54.8609 59.7238 54.8875 58.9568 54.9318C58.7839 55.1313 58.3317 55.619 58.1943 55.7697C59.2095 55.6634 60.3268 55.6145 61.6568 55.6145C63.55 55.6145 65.359 55.7388 67.0703 55.9914L66.1702 56.856C64.951 56.7053 63.4701 56.6166 62.1623 56.6166C58.7884 56.6166 56.1282 57.3481 53.3793 59.0284C55.9996 61.8393 60.2913 63.6172 64.45 63.6172H64.8401L63.386 65.0229C57.3873 63.8966 51.0739 61.2586 45.7403 57.6451C40.6106 54.1825 38.815 53.1584 34.8115 51.3894L34.7849 50.3608L37.4938 51.5224L38.416 50.7908L47.261 54.8432L46.6846 55.3042L42.1447 53.3313L41.6969 53.6815L44.0556 54.9983C46.0463 56.1068 47.5625 56.6033 48.9636 56.6033C52.0271 56.6033 54.776 54.4308 56.5494 50.6136C57.8839 50.4405 59.3071 50.3608 61.0184 50.3608C64.5298 50.3608 67.9392 50.6977 71.8009 51.4204L70.8609 52.3293C68.458 51.8283 64.3746 51.4204 61.7677 51.4204ZM53.1709 76.6696C41.6643 76.6696 32.3304 67.3357 32.3304 55.8291C32.3304 44.3224 41.6643 34.9884 53.1709 34.9884C64.6776 34.9884 74.0115 44.3224 74.0115 55.8291C74.0115 67.3357 64.6776 76.6696 53.1709 76.6696ZM53.1709 33.6582C40.9105 33.6582 31 43.5686 31 55.8291C31 68.0896 40.9105 78 53.1709 78C65.4314 78 75.3419 68.0896 75.3419 55.8291C75.3419 43.5686 65.4314 33.6582 53.1709 33.6582ZM111.744 64.6552H124.456V70.6097H104.903V41.0484H111.744V64.6552ZM139.827 49.3256H146.204V70.6097H140.208V68.1604C139.321 69.8074 137.505 71.243 134.168 71.243C128.721 71.243 125.892 68.7937 125.892 61.7835V49.3256H132.268V61.4878C132.268 64.3174 133.493 65.5841 136.069 65.5841C138.392 65.5841 139.827 64.3174 139.827 61.4878V49.3256ZM151.103 48.5234C151.103 43.3714 154.355 40.6262 159.465 40.6262C161.112 40.6262 162.167 40.8796 162.167 40.8796V46.0316C162.167 46.0316 161.281 45.9474 160.52 45.9474C158.535 45.9474 157.48 46.6231 157.48 48.4811V49.3256H162.167V54.52H157.48V70.6097H151.103V54.52H147.894V49.3256H151.103V48.5234ZM173.4 49.3256H178.256V54.52H173.4V62.7971C173.4 65.0776 174.582 65.6688 176.441 65.6688C177.201 65.6688 178.256 65.5422 178.256 65.5422V70.652C178.256 70.652 176.779 70.9896 175.216 70.9896C170.107 70.9896 167.024 68.6671 167.024 63.5152V54.52H163.814V49.3256H167.024V43.1178H173.4V49.3256ZM192.375 48.6922C197.781 48.6922 200.61 51.1414 200.61 58.1517V70.6097H194.233V58.4472C194.233 55.618 193.009 54.3512 190.348 54.3512C187.94 54.3512 186.505 55.618 186.505 58.4472V70.6097H180.128V41.0907H186.547V51.3949C187.645 49.8322 189.376 48.6922 192.375 48.6922ZM216.868 62.3325C216.868 64.6552 214.672 66.3868 211.294 66.3868C209.647 66.3868 208.675 65.6267 208.675 64.1907C208.675 63.0927 209.351 62.1638 211.506 61.8683L215.18 61.3613C215.813 61.2767 216.488 61.1502 216.868 61.0235V62.3325ZM213.321 48.6923C207.029 48.6923 203.988 51.0995 203.735 55.6181H209.942C210.027 54.4355 210.703 53.5487 213.321 53.5487C215.644 53.5487 216.742 54.309 216.742 55.4489C216.742 56.4628 216.108 56.8427 214.546 57.0116L210.492 57.4338C205.001 58.0249 202.51 60.3055 202.51 64.4443C202.51 68.2871 204.875 71.243 209.901 71.243C213.321 71.243 215.349 70.1451 217.121 67.949V70.6097H222.95V56.6315C222.95 50.7615 219.529 48.6923 213.321 48.6923ZM237.695 48.6922C243.227 48.6922 246.056 51.1414 246.056 58.1517V70.6097H239.679V58.4472C239.679 55.618 238.455 54.3512 235.795 54.3512C233.387 54.3512 231.952 55.618 231.952 58.4472V70.6097H225.575V49.3257H231.571V51.7752C232.459 50.128 234.274 48.6922 237.695 48.6922ZM259.508 57.2649C264.913 57.983 267.616 59.6721 267.616 64.1063C267.616 68.5827 264.449 71.2432 257.734 71.2432C250.429 71.2432 247.852 68.3295 247.726 64.0638H254.019C254.188 65.6267 255.285 66.3868 257.734 66.3868C260.226 66.3868 261.239 65.7954 261.239 64.6131C261.239 63.5152 260.395 63.0085 258.199 62.7128L255.96 62.417C251.273 61.7836 248.571 59.9678 248.571 55.7447C248.571 51.6906 251.569 48.6922 257.862 48.6922C263.689 48.6922 266.814 51.0148 267.11 55.618H260.901C260.691 54.3936 260.015 53.6332 257.862 53.6332C255.75 53.6332 254.948 54.3512 254.948 55.2804C254.948 56.2092 255.455 56.716 257.27 56.9695L259.508 57.2649ZM283.579 62.3329C283.579 64.6553 281.383 66.3868 278.005 66.3868C276.358 66.3868 275.387 65.6267 275.387 64.1907C275.387 63.0927 276.062 62.1638 278.216 61.8683L281.89 61.3613C282.524 61.2771 283.199 61.1502 283.579 61.0235V62.3329ZM280.031 48.6923C273.74 48.6923 270.699 51.0995 270.446 55.6181H276.654C276.738 54.4355 277.414 53.549 280.031 53.549C282.355 53.549 283.453 54.309 283.453 55.4493C283.453 56.4628 282.819 56.8427 281.257 57.0116L277.202 57.4338C271.713 58.0252 269.221 60.3056 269.221 64.4443C269.221 68.2871 271.585 71.243 276.611 71.243C280.031 71.243 282.059 70.1451 283.833 67.949V70.6097H289.66V56.6315C289.66 50.7618 286.24 48.6923 280.031 48.6923Z" fill="#F0CC7F"/>
</svg>
