<svg width="320" height="110" viewBox="0 0 320 110" fill="none" xmlns="http://www.w3.org/2000/svg">
<path d="M291.994 77.9537C290.873 77.9537 289.987 78.8461 289.987 79.9638C289.987 81.0821 290.873 81.9727 291.994 81.9727C293.112 81.9727 294.001 81.0821 294.001 79.9638C294.001 78.8461 293.112 77.9537 291.994 77.9537ZM291.994 81.6652C291.076 81.6652 290.292 80.9125 290.292 79.9638C290.292 79.0139 291.076 78.2651 291.994 78.2651C292.91 78.2651 293.692 79.0139 293.692 79.9638C293.692 80.9125 292.91 81.6652 291.994 81.6652Z" fill="#F0CC7F"/>
<path d="M292.975 79.4312C292.975 78.9579 292.593 78.8502 292.195 78.8502H291.243V81.0485H291.55V80.0331H291.922L292.575 81.0485H292.945L292.285 80.0331C292.675 80.0217 292.975 79.8653 292.975 79.4312ZM291.922 79.7273H291.55V79.1607H292.134C292.373 79.1607 292.668 79.2005 292.668 79.4255C292.668 79.7758 292.188 79.7273 291.922 79.7273Z" fill="#F0CC7F"/>
<path d="M279.139 82C279.53 80.9347 279.883 79.7972 280.174 78.6409C280.738 76.2943 281.029 73.8638 281.029 71.3879C281.029 69.9588 280.93 68.5449 280.741 67.1535C280.601 69.181 280.248 70.9577 280.248 70.9577C280.331 71.2255 280.478 71.6652 280.546 71.9366L280.546 71.9378C280.328 74.0305 279.934 76.0636 279.382 78.019C279.117 77.0368 278.761 76.0914 278.738 76.0304C278.737 76.0292 278.737 76.028 278.736 76.0271C278.021 77.9388 276.953 80.1897 275.982 82H279.139Z" fill="#F0CC7F"/>
<path d="M272.52 82H274.345C279.539 74.3009 279.801 67.4775 279.801 66.1701C279.801 63.7005 279.387 61.4313 278.696 59.6345C278.696 59.6345 277.618 56.8421 275.94 54.3572C276.123 54.9124 276.475 56.0382 276.669 57.0437C276.682 57.1107 276.693 57.17 276.702 57.2247C277.033 57.7779 278.524 60.4162 278.723 63.3176C278.724 63.3226 278.724 63.3262 278.724 63.3262C278.724 63.3262 277.67 61.8454 276.889 60.9096C276.861 62.5044 276.655 64.1002 276.322 65.6415C276.322 65.6415 277.883 67.4557 278.581 68.6257C278.581 68.6257 278.107 71.1776 277.088 73.623C276.052 72.111 274.729 70.6424 274.729 70.6424C273.954 72.563 272.974 74.4957 271.885 76.2829C271.885 76.2829 273.863 78.6056 274.297 79.268C273.716 80.2493 273.15 81.1037 272.52 82Z" fill="#F0CC7F"/>
<path d="M266.019 82C269.466 78.1315 272.404 73.5808 274.168 68.7083C275.699 64.481 276.533 59.318 275.177 54.7258C275.086 54.4227 274.984 54.1173 274.865 53.81C274.432 52.6869 273.87 51.7075 273.259 50.938C271.61 49.0891 269.743 47.4416 267.698 46.0391C267.998 46.428 268.273 46.8286 268.511 47.2349C268.511 47.2349 271.002 49.0888 272.448 50.9724C270.593 49.6465 269.542 49.1098 269.406 49.0419C269.401 49.0395 269.395 49.0371 269.391 49.0344C270.095 50.777 270.307 52.2202 270.307 52.2226C270.307 52.2226 272.508 53.375 274.49 55.0967C274.764 56.3697 274.877 57.6741 274.859 58.9799C272.862 57.2169 270.551 55.8402 270.551 55.8402C270.508 57.333 270.303 58.845 269.976 60.3148C269.976 60.3148 272.158 61.7015 274.285 63.6454C274.285 63.6454 273.674 66.4002 272.689 68.5665C270.648 66.6605 268.659 65.1772 268.502 65.0611C268.502 65.0611 267.489 67.7117 265.848 70.3719C267.891 72.1553 269.811 74.0038 269.811 74.0038C268.638 75.8401 267.311 77.5885 265.879 79.2231L265.879 79.2246L262.224 75.5733C260.739 77.4167 259.111 79.1537 257.383 80.7525C257.465 80.8452 258.202 81.6646 258.503 82H266.019Z" fill="#F0CC7F"/>
<path d="M266.958 46.4468C266.722 46.1225 266.454 45.7919 266.147 45.4976C265.878 45.24 265.616 45.0075 265.34 44.7987C262.299 42.4984 256.703 41.3481 256.703 41.3481C257.237 41.6338 257.682 41.9267 257.684 41.9288C257.711 41.9354 259.967 42.5029 261.968 43.4851C261.968 43.4851 260.148 43.0701 258.98 42.9086C259.463 43.334 259.922 43.8237 260.324 44.3353C260.324 44.3353 264.037 45.015 265.667 45.9119C265.667 45.9119 266.447 46.7176 267.085 48.1308C264.54 47.0942 261.658 46.5536 261.658 46.5536C262.041 47.4137 262.315 48.3349 262.483 49.2934C262.483 49.2934 265.651 50.0715 268.032 51.2186C268.238 52.353 268.313 53.5257 268.27 54.7122C265.458 53.2975 262.666 52.4089 262.666 52.4089C262.61 53.6319 262.414 54.8995 262.085 56.1943C262.085 56.1943 265.924 57.9148 267.65 58.9592C267.269 60.4886 266.734 61.9865 266.091 63.4288C263.463 61.7158 260.682 60.1924 260.682 60.1924C259.983 61.8758 258.265 64.6329 258.265 64.6329L258.265 64.6332V64.6329L258.267 64.6341C258.31 64.6641 261.17 66.6341 263.364 68.3824C262.274 70.0398 261.045 71.6317 259.708 73.1449C259.246 72.7021 255.03 68.9463 255.03 68.9463C253.757 70.4269 252.34 71.8692 250.789 73.2499C250.789 73.2499 250.789 73.2505 250.79 73.2508L254.854 77.8666C254.855 77.8669 254.855 77.8669 254.855 77.8672L254.855 77.8678C252.218 80.0461 249.59 81.6966 249.59 81.6966L246.199 76.8653C246.199 76.8653 243.812 78.687 239.784 80.5998V81.9999H253.011C267.776 70.791 273.015 54.7631 266.958 46.4468Z" fill="#F0CC7F"/>
<path d="M259.469 44.765C255.802 39.8126 250.062 40.5201 248.351 40.7603C246.47 41.0248 245.049 41.4377 245.049 41.4377C245.469 41.4771 246.041 41.5525 246.454 41.6348C246.758 41.563 249.397 40.9593 251.315 41.2115C251.318 41.2115 251.321 41.2118 251.321 41.2118C249.911 41.3653 247.988 41.9486 247.787 42.0103C247.785 42.0109 247.785 42.0121 247.783 42.013C247.785 42.0139 247.786 42.0148 247.789 42.0154C247.858 42.0357 248.412 42.2044 249.123 42.623C249.331 42.567 251.942 41.8721 254.432 41.823V41.8236C254.432 41.8236 255.352 42.2331 256.239 42.8438C253.021 42.8315 250.358 43.4514 250.286 43.4684C250.662 43.8038 251.037 44.2074 251.374 44.6923C254.901 44.1622 257.944 44.3919 257.944 44.3919C257.944 44.3919 258.358 44.8984 258.544 45.1707C258.779 45.5135 259.019 45.9395 259.206 46.3138C255.606 45.8914 252.163 46.1935 252.16 46.1935C252.398 46.8086 252.559 47.4665 252.647 48.1582C253.045 48.1552 256.093 48.1609 259.977 48.8624C260.101 49.7557 260.113 50.7128 260.016 51.7228C259.355 51.5504 256.167 50.7514 252.688 50.4049C252.618 51.2773 252.453 52.1856 252.198 53.1169C252.588 53.209 256.886 54.237 259.293 55.2155C259.247 55.3672 259.198 55.5195 259.147 55.6727C258.803 56.7099 258.372 57.7513 257.862 58.7894C255.924 57.8318 251.17 55.9671 251.17 55.9671C250.695 57.0339 250.114 58.1139 249.434 59.1918C249.434 59.1918 253.51 61.5256 255.473 62.8177C254.567 64.117 253.543 65.3926 252.414 66.6255C250.991 65.3442 247.43 62.5757 247.161 62.3668C246.013 63.7388 244.566 65.1817 244.133 65.6083L248.406 70.5249C248.367 70.5605 248.326 70.5967 248.284 70.6332C247.359 71.4023 246.363 72.1263 245.521 72.7067C244.79 73.2048 244.187 73.5907 243.979 73.7254C243.929 73.6497 241.132 69.1672 240.711 68.454C240.404 68.6826 240.094 68.9013 239.784 69.1161V78.3307C240.287 78.0875 240.791 77.8356 241.293 77.5679C243.702 76.3775 246.04 74.867 248.216 73.1219C249.611 72.0108 251.073 70.7074 252.517 69.2025C254.233 67.4368 255.723 65.5871 256.966 63.7128C261.679 56.7326 262.942 49.4548 259.469 44.765Z" fill="#F0CC7F"/>
<path d="M249.957 44.3917C248.21 42.3807 245.304 41.692 241.927 42.1764C241.835 42.1902 241.739 42.203 241.653 42.2177C241.395 42.2614 241.134 42.314 240.872 42.3723C240.35 42.4938 239.993 42.6135 239.784 42.6946V43.7087C240.117 43.4458 240.456 43.1954 240.806 42.9602C241.479 42.8157 242.133 42.7236 242.763 42.6823C241.788 43.2408 240.662 43.9983 239.784 44.6981V45.4786L239.815 45.4966C239.815 45.4966 242.29 43.5307 244.256 42.6835C244.73 42.7179 245.185 42.7843 245.617 42.8839C242.679 44.1347 240.509 45.6862 240.359 45.7951C240.66 45.9743 240.935 46.199 240.971 46.2286C241.009 46.2047 243.858 44.4169 246.994 43.3452C247.419 43.5403 247.83 43.7832 248.186 44.0582C244.772 45.0209 241.49 46.7399 241.49 46.7399C241.675 46.9559 241.838 47.1893 241.979 47.4391C242.001 47.4301 242.021 47.422 242.037 47.4157C245.531 45.9151 249.244 45.1456 249.244 45.1456C249.535 45.5447 249.774 45.9905 249.957 46.4817C249.957 46.4817 246.625 46.8641 242.338 48.2435C242.527 48.838 242.579 49.2846 242.579 49.2888C242.579 49.2888 246.62 48.3817 250.347 48.2812C250.399 48.8819 250.381 49.5563 250.295 50.2479C248.088 50.1313 242.83 50.4119 242.624 50.428C242.624 50.428 242.605 51.1882 242.408 51.9032C242.408 51.9032 246.249 52.0268 249.744 52.6808C249.473 53.5202 249.128 54.3483 248.719 55.1567C246.391 54.4548 242.857 53.6025 241.927 53.3883C241.682 53.9929 241.374 54.5931 241.01 55.174C241.01 55.174 245.328 57.0651 246.985 57.9898H246.989L246.988 57.9916C246.269 59.0722 244.843 60.5848 244.843 60.5848C244.429 60.2743 244.038 59.9844 243.669 59.713C242.524 58.9092 240.825 57.7155 239.793 56.9942C239.788 56.9909 239.787 56.9906 239.784 56.9885V60.5713L242.024 63.1962C241.286 63.7928 240.534 64.3364 239.784 64.8243V66.9622C239.812 66.9442 239.839 66.9266 239.866 66.9083C240.889 66.2095 241.9 65.4307 242.885 64.5712C250.611 57.825 253.777 48.7901 249.957 44.3917Z" fill="#F0CC7F"/>
<path d="M239.784 54.6602C241.758 51.8403 242.044 48.6039 240.31 47.024C240.147 46.8756 239.971 46.7484 239.784 46.6386V54.6602Z" fill="#F0CC7F"/>
<path d="M250.561 39.4999C268.072 39.4999 282.318 53.8489 282.318 71.486C282.318 75.0632 281.715 78.6224 280.549 82H288.344V33.2727H239.783V41.4002L239.821 41.3865C243.269 40.1347 246.882 39.4999 250.561 39.4999Z" fill="#F0CC7F"/>
<path d="M219.465 48.8089C218.279 47.7498 216.766 46.928 214.924 46.3443C213.082 45.7607 210.868 45.469 208.282 45.469H195.192V69.7913H208.282C212.936 69.7913 216.54 68.7807 219.093 66.759C221.646 64.7381 222.923 61.6952 222.923 57.6304C222.923 55.8142 222.643 54.1547 222.082 52.652C221.522 51.1493 220.649 49.8685 219.465 48.8089ZM215.085 60.6787C214.816 61.5005 214.38 62.1595 213.776 62.6565C213.173 63.1549 212.391 63.5112 211.433 63.7269C210.474 63.9435 209.316 64.0512 207.959 64.0512H202.239V51.2088H207.959C209.359 51.2088 210.539 51.3282 211.498 51.5654C212.456 51.8041 213.232 52.1814 213.825 52.7008C214.417 53.2195 214.843 53.8843 215.102 54.695C215.36 55.5064 215.489 56.4843 215.489 57.6304C215.489 58.8409 215.354 59.8569 215.085 60.6787Z" fill="#F0CC7F"/>
<path d="M167.365 59.8029H180.616V55.0357H167.365V51.0149H183.105L182.976 45.4686H160.319V69.7913H183.622L183.752 64.3105H167.365V59.8029Z" fill="#F0CC7F"/>
<path d="M124.542 45.4688L124.349 51.2087H133.624V69.7912H140.702V51.2087H149.977L149.816 45.4688H124.542Z" fill="#F0CC7F"/>
<path d="M106.442 69.7913H113.617V45.4686H106.442V69.7913Z" fill="#F0CC7F"/>
<path d="M86.5341 57.5649L86.5991 60.1595L86.5341 60.2242L84.6919 58.3433L71.5707 45.4686H65.7529V69.7913H72.1521V57.0144L72.088 54.3871L72.1843 54.3548L74.0271 56.2031L88.3117 69.7913H92.9338V45.4686H86.5341V57.5649Z" fill="#F0CC7F"/>
<path d="M46.2642 59.1868C46.2642 61.0243 45.7469 62.3921 44.7129 63.2893C43.679 64.1868 42.0192 64.635 39.7357 64.635C37.4301 64.635 35.7387 64.1868 34.6615 63.2893C33.5837 62.3921 33.0452 61.0243 33.0452 59.1868V45.4688H26V59.1222C26 62.8836 27.1795 65.6892 29.539 67.5381C31.8983 69.3861 35.2968 70.3102 39.7357 70.3102C44.1953 70.3102 47.5677 69.3914 49.8518 67.5539C52.1353 65.7162 53.2778 62.9049 53.2778 59.1222V45.4688H46.2642V59.1868Z" fill="#F0CC7F"/>
</svg>
