<svg width="32" height="32" viewBox="0 0 32 32" fill="none" xmlns="http://www.w3.org/2000/svg">
<path fill-rule="evenodd" clip-rule="evenodd" d="M6.8414 9.47885C6.57092 9.39096 6.28625 9.56698 6.24403 9.84824L5.7374 13.223C5.66482 13.7065 5.95239 14.1715 6.4173 14.3226L23.6766 19.9304C24.483 20.1925 25.3492 19.7511 25.6113 18.9446C25.8837 18.1063 25.3959 17.2113 24.5438 16.9859L19.2321 15.5805L17.904 6.20729C17.8489 5.81839 17.5771 5.49483 17.2035 5.37345C16.5776 5.17006 15.9243 5.59887 15.8619 6.2541L15.1018 14.2384L7.84558 12.2959L7.14227 9.7921C7.10066 9.64395 6.98775 9.5264 6.8414 9.47885ZM25.6775 22.9521H5.14746V24.5314H25.6775V22.9521Z" fill="#18262F"/>
</svg>
