<svg width="24" height="24" viewBox="0 0 24 24" fill="none" xmlns="http://www.w3.org/2000/svg">
<path fill-rule="evenodd" clip-rule="evenodd" d="M13 4.50001V3.50001C12.9976 3.36142 13.0518 3.22784 13.15 3.13001C13.2597 3.03336 13.4044 2.98632 13.55 3.00001C17.5489 3.26666 20.7333 6.45114 21 10.45C21.0082 10.5888 20.9615 10.7253 20.87 10.83C20.7722 10.9282 20.6386 10.9824 20.5 10.98H19.5C19.2388 10.9808 19.0209 10.7804 19 10.52C18.7722 7.57092 16.4291 5.22785 13.48 5.00001C13.2117 4.98927 12.9998 4.76853 13 4.50001ZM13.17 7.14001C13.0608 7.23594 12.9987 7.37466 13 7.52001V8.52001C12.9959 8.75906 13.165 8.96613 13.4 9.01001C14.2041 9.1572 14.8376 9.77888 15 10.58C15.0439 10.815 15.251 10.9841 15.49 10.98H16.49C16.6354 10.9813 16.7741 10.9192 16.87 10.81C16.9641 10.6993 17.0077 10.5543 16.99 10.41C16.7289 8.64985 15.3494 7.26633 13.59 7.00001C13.4428 6.98776 13.2974 7.03866 13.19 7.14001H13.17ZM19.09 20.41C18.7142 20.7881 18.203 21.0004 17.67 21H17C15.3293 20.9929 13.6866 20.5702 12.22 19.77L11.77 19.52C8.66075 17.8483 6.11169 15.2993 4.44 12.19L4.19 11.74C3.41014 10.2817 3.00144 8.65376 3 7.00001V6.33001C2.99958 5.79697 3.21196 5.28581 3.59 4.91001L5.28 3.22001C5.44413 3.05461 5.67581 2.97489 5.90696 3.00427C6.13811 3.03365 6.34248 3.16881 6.46 3.37001L8.71 7.23001C8.93753 7.6229 8.87183 8.11977 8.55 8.44001L6.66 10.33C6.50304 10.4852 6.46647 10.725 6.57 10.92L6.92 11.58C8.17704 13.9085 10.0893 15.8172 12.42 17.07L13.08 17.43C13.275 17.5335 13.5148 17.497 13.67 17.34L15.56 15.45C15.8802 15.1282 16.3771 15.0625 16.77 15.29L20.63 17.54C20.8312 17.6575 20.9664 17.8619 20.9957 18.0931C21.0251 18.3242 20.9454 18.5559 20.78 18.72L19.09 20.41Z" fill="white"/>
</svg>
