<svg width="24" height="24" viewBox="0 0 24 24" fill="none" xmlns="http://www.w3.org/2000/svg">
<path d="M12.7199 15.78C12.5793 15.9207 12.3887 15.9998 12.1899 16H11.8099C11.6114 15.9977 11.4216 15.9189 11.2799 15.78L6.14985 10.64C6.0552 10.5461 6.00195 10.4183 6.00195 10.285C6.00195 10.1517 6.0552 10.0239 6.14985 9.93001L6.85985 9.22001C6.95202 9.12595 7.07816 9.07294 7.20985 9.07294C7.34154 9.07294 7.46769 9.12595 7.55985 9.22001L11.9999 13.67L16.4399 9.22001C16.5337 9.12536 16.6615 9.07211 16.7949 9.07211C16.9282 9.07211 17.056 9.12536 17.1499 9.22001L17.8499 9.93001C17.9445 10.0239 17.9978 10.1517 17.9978 10.285C17.9978 10.4183 17.9445 10.5461 17.8499 10.64L12.7199 15.78Z" fill="#18262F"/>
</svg>
