<svg width="34" height="34" viewBox="0 0 34 34" fill="none" xmlns="http://www.w3.org/2000/svg">
<path d="M29.75 18.4167V24.0834C29.75 25.6482 28.4815 26.9167 26.9167 26.9167V28.3334C26.9167 30.6806 25.0139 32.5834 22.6667 32.5834H18.4167C17.6343 32.5834 17 31.9491 17 31.1667V30.4584C17 30.0672 17.3171 29.75 17.7083 29.75H22.6667C23.4491 29.75 24.0833 29.1158 24.0833 28.3334V26.9167C23.3009 26.9167 22.6667 26.2824 22.6667 25.5V17C22.6667 16.2176 23.3009 15.5834 24.0833 15.5834V11.3334C24.0833 7.42134 20.912 4.25002 17 4.25002C13.088 4.25002 9.91667 7.42134 9.91667 11.3334V15.5834C10.6991 15.5834 11.3333 16.2176 11.3333 17V25.5C11.3333 26.2824 10.6991 26.9167 9.91667 26.9167H7.08333C5.51853 26.9167 4.25 25.6482 4.25 24.0834V18.4167C4.25 16.8519 5.51853 15.5834 7.08333 15.5834V11.3334C7.08333 5.85653 11.5232 1.41669 17 1.41669C22.4768 1.41669 26.9167 5.85653 26.9167 11.3334V15.5834C27.6681 15.5834 28.3888 15.8819 28.9201 16.4132C29.4515 16.9446 29.75 17.6652 29.75 18.4167Z" fill="#F0CC7F"/>
</svg>
