<svg width="55" height="14" viewBox="0 0 55 14" fill="none" xmlns="http://www.w3.org/2000/svg">
<path fill-rule="evenodd" clip-rule="evenodd" d="M13.8479 8.552H16.7822C16.7632 9.35893 16.8518 9.98915 17.0479 10.4427C17.3999 11.2249 18.1235 11.616 19.2186 11.616C19.7075 11.616 20.1572 11.5476 20.5679 11.4107C20.9981 11.2738 21.3208 11.176 21.5359 11.1173C21.5555 11.4693 21.5652 11.8213 21.5652 12.1733C21.5652 12.5253 21.5848 12.8773 21.6239 13.2293C21.135 13.4249 20.5875 13.5813 19.9812 13.6987C19.375 13.816 18.8568 13.8747 18.4266 13.8747C16.6079 13.8747 15.327 13.3076 14.5839 12.1733C14.0377 11.3172 13.7924 10.1101 13.8479 8.552ZM27.8317 8.552H25.139L24.4341 13.552C24.7861 13.552 25.275 13.5716 25.9008 13.6107C26.5461 13.6498 27.2306 13.6693 27.9541 13.6693C29.675 13.6693 30.9657 13.3564 31.8261 12.7307C32.7061 12.0853 33.2537 11.0782 33.4688 9.70933C33.5186 9.28108 33.5208 8.8953 33.4755 8.552H30.5914C30.7094 8.82307 30.7396 9.15996 30.6821 9.56267C30.5648 10.3644 30.291 10.912 29.8608 11.2053C29.4306 11.4987 28.8146 11.6453 28.0128 11.6453L27.3674 11.616L27.8317 8.552ZM33.0874 5.48533C33.0702 5.5078 33.0528 5.53003 33.0355 5.552H30.4108C30.7879 5.20979 31.025 4.69868 31.1221 4.01867C31.1612 3.432 31.083 2.98222 30.8874 2.66933C30.6919 2.33689 30.2421 2.17067 29.5381 2.17067L28.6874 2.2L28.2557 5.552H25.5619L26.3114 0.234667L29.7141 0.146667C31.3372 0.146667 32.4812 0.400889 33.1461 0.909333C33.811 1.39822 34.0457 2.27822 33.8501 3.54933C33.7328 4.312 33.4786 4.95733 33.0874 5.48533ZM36.2187 12.1733C35.6725 11.3172 35.4272 10.1101 35.4827 8.552H38.417C38.398 9.35893 38.4865 9.98915 38.6827 10.4427C39.0347 11.2249 39.7582 11.616 40.8533 11.616C41.3422 11.616 41.792 11.5476 42.2027 11.4107C42.6329 11.2738 42.9556 11.176 43.1707 11.1173C43.1902 11.4693 43.2 11.8213 43.2 12.1733C43.2 12.5253 43.2196 12.8773 43.2587 13.2293C42.7698 13.4249 42.2222 13.5813 41.616 13.6987C41.0098 13.816 40.4916 13.8747 40.0613 13.8747C38.2427 13.8747 36.9618 13.3076 36.2187 12.1733ZM35.8783 5.552H38.7987C39.0045 4.6423 39.2885 3.92585 39.6507 3.40267C40.1787 2.62044 41.0293 2.22933 42.2027 2.22933C42.6524 2.22933 43.0631 2.29778 43.4347 2.43467C43.8258 2.57156 44.1289 2.66933 44.344 2.728L45.0187 0.616C44.9404 0.596444 44.8133 0.547555 44.6373 0.469334C44.4809 0.391112 44.1582 0.293334 43.6693 0.176001C43.1804 0.058667 42.6329 0 42.0267 0C40.208 0 38.7707 0.557334 37.7147 1.672C36.8724 2.56104 36.2603 3.85437 35.8783 5.552ZM47.2715 13.552L47.963 8.552H50.7923L50.0875 13.552H47.2715ZM48.3779 5.552H51.2152L51.6422 2.52267H54.3409L54.6929 0.234667H46.3622L46.0689 2.52267H48.7969L48.3779 5.552ZM14.2436 5.552H17.1639C17.3697 4.6423 17.6537 3.92585 18.0159 3.40267C18.5439 2.62044 19.3946 2.22933 20.5679 2.22933C21.0177 2.22933 21.4283 2.29778 21.7999 2.43467C22.191 2.57156 22.4941 2.66933 22.7092 2.728L23.3839 0.616C23.3057 0.596444 23.1786 0.547555 23.0026 0.469334C22.8461 0.391112 22.5235 0.293334 22.0346 0.176001C21.5457 0.058667 20.9981 0 20.3919 0C18.5732 0 17.1359 0.557334 16.0799 1.672C15.2377 2.56104 14.6255 3.85437 14.2436 5.552ZM11.6539 6.77092L11.8633 6.87294C12.0456 6.96175 12.0456 7.21524 11.8633 7.30405L11.6539 7.40607C11.1077 7.67222 10.5024 7.80284 9.89195 7.78631L8.53774 7.77501L5.42274 12.1793C5.39778 12.2145 5.36361 12.2427 5.32376 12.2608L4.70955 12.5404C4.61243 12.5846 4.50755 12.4956 4.53903 12.3958L5.94777 7.9286C5.99545 7.7774 5.88326 7.62319 5.72106 7.617L2.30637 7.4865C2.10448 7.47852 1.91134 7.56718 1.78908 7.72394L0.960711 8.7861C0.863712 8.91047 0.720931 8.99327 0.562486 9.01703L0.102139 9.08604C0.0573228 9.09276 0.0205777 9.05174 0.0334588 9.00938L0.495269 7.49052C0.498647 7.47941 0.500363 7.46788 0.500363 7.45629V7.33485C0.500363 7.27594 0.456663 7.22567 0.397039 7.21599L0.0516652 7.15989C-0.0144758 7.14915 -0.0182173 7.05786 0.0468341 7.04202L0.406702 6.95434C0.461747 6.94093 0.500363 6.89274 0.500363 6.83744V6.708C0.500363 6.69641 0.498647 6.68489 0.495269 6.67377L0.0334587 5.15492C0.0205777 5.11255 0.0573227 5.07153 0.102138 5.07825L0.562486 5.14727C0.720931 5.17102 0.863712 5.25382 0.960711 5.3782L1.78947 6.44086C1.91151 6.59734 2.10421 6.68598 2.30574 6.67834L5.73976 6.55241C5.90209 6.54646 6.01455 6.39219 5.96687 6.24086L4.53892 1.70818C4.50747 1.60835 4.61235 1.51945 4.70945 1.56364L5.32226 1.84252C5.36306 1.86109 5.39788 1.89015 5.42297 1.92659L8.53774 6.44953L9.89195 6.39068C10.5024 6.37415 11.1077 6.50477 11.6539 6.77092Z" fill="#FF5F5F"/>
</svg>
