<svg width="96" height="30" viewBox="0 0 96 30" fill="none" xmlns="http://www.w3.org/2000/svg">
<path d="M22.9676 20.1399L16.0015 21.9175L25.8866 29L22.9676 20.1399Z" fill="#F0CC7F"/>
<path d="M32 11.4613L19.7765 11.4593L16.0005 0L12.2245 11.4573L0 11.4553L9.89028 18.5407L6.11329 30L16.0015 22.9186L22.1107 18.5427L32 11.4613Z" fill="#F0CC7F"/>
<path d="M52.248 17.1133H54.0205V19.6162H52.248V23H49.1436V19.6162H42.7305L42.5908 17.6611L49.1113 7.35938H52.248V17.1133ZM45.6846 17.1133H49.1436V11.5918L48.9395 11.9463L45.6846 17.1133ZM55.9863 21.4746C55.9863 20.9805 56.151 20.5794 56.4805 20.2715C56.8171 19.9635 57.236 19.8096 57.7373 19.8096C58.2458 19.8096 58.6647 19.9635 58.9941 20.2715C59.3307 20.5794 59.499 20.9805 59.499 21.4746C59.499 21.9616 59.3343 22.359 59.0049 22.667C58.6755 22.9678 58.2529 23.1182 57.7373 23.1182C57.2288 23.1182 56.8099 22.9678 56.4805 22.667C56.151 22.359 55.9863 21.9616 55.9863 21.4746ZM69.3604 16.748C68.5511 17.543 67.6058 17.9404 66.5244 17.9404C65.1423 17.9404 64.0358 17.4678 63.2051 16.5225C62.3743 15.57 61.959 14.2881 61.959 12.6768C61.959 11.6527 62.181 10.7145 62.625 9.8623C63.0762 9.00293 63.7028 8.33691 64.5049 7.86426C65.307 7.38444 66.2093 7.14453 67.2119 7.14453C68.2432 7.14453 69.1598 7.40234 69.9619 7.91797C70.764 8.43359 71.387 9.1748 71.8311 10.1416C72.2751 11.1084 72.5007 12.2148 72.5078 13.4609V14.6104C72.5078 17.2171 71.8597 19.2653 70.5635 20.7549C69.2673 22.2445 67.4303 23.0394 65.0527 23.1396L64.29 23.1504V20.5615L64.9775 20.5508C67.6774 20.429 69.1383 19.1615 69.3604 16.748ZM67.2871 15.5664C67.7884 15.5664 68.2181 15.4375 68.5762 15.1797C68.9414 14.9219 69.2171 14.6104 69.4033 14.2451V12.9668C69.4033 11.9141 69.2028 11.0977 68.8018 10.5176C68.4007 9.9375 67.8636 9.64746 67.1904 9.64746C66.5674 9.64746 66.0553 9.93392 65.6543 10.5068C65.2533 11.0726 65.0527 11.7852 65.0527 12.6445C65.0527 13.4967 65.2461 14.1986 65.6328 14.75C66.0267 15.2943 66.5781 15.5664 67.2871 15.5664ZM75.1611 24.3428H73.9902L80.5215 7.35938H81.6816L75.1611 24.3428ZM83.9375 15.3086L84.8398 7.35938H93.6055V9.94824H87.3857L86.999 13.3105C87.7367 12.9167 88.5208 12.7197 89.3516 12.7197C90.8411 12.7197 92.0085 13.1816 92.8535 14.1055C93.6986 15.0293 94.1211 16.3219 94.1211 17.9834C94.1211 18.9932 93.9062 19.8991 93.4766 20.7012C93.054 21.4961 92.4453 22.1156 91.6504 22.5596C90.8555 22.9964 89.9173 23.2148 88.8359 23.2148C87.8906 23.2148 87.0133 23.0251 86.2041 22.6455C85.3949 22.2588 84.7539 21.7181 84.2812 21.0234C83.8158 20.3288 83.5687 19.5374 83.54 18.6494H86.6123C86.6768 19.3011 86.9023 19.8096 87.2891 20.1748C87.6829 20.5329 88.195 20.7119 88.8252 20.7119C89.527 20.7119 90.0677 20.4613 90.4473 19.96C90.8268 19.4515 91.0166 18.7354 91.0166 17.8115C91.0166 16.9235 90.7982 16.2432 90.3613 15.7705C89.9245 15.2979 89.305 15.0615 88.5029 15.0615C87.7653 15.0615 87.1673 15.2549 86.709 15.6416L86.4082 15.9209L83.9375 15.3086Z" fill="#F0CC7F"/>
</svg>
